<?xml version="1.0" encoding="UTF-8"?>
<svg version="1.1" xmlns="http://www.w3.org/2000/svg" width="512" height="512">
<path d="M0 0 C1.01790619 0.00215515 2.03581238 0.0043103 3.08456421 0.00653076 C17.69363523 0.05620146 32.02575853 0.30709809 46.375 3.3125 C47.34985352 3.51117676 48.32470703 3.70985352 49.32910156 3.91455078 C97.7109774 14.03517194 141.69928269 35.9516877 177.375 70.3125 C178.3640332 71.26068604 178.3640332 71.26068604 179.37304688 72.22802734 C188.86130305 81.37247479 197.6012044 90.66984009 205.375 101.3125 C206.23306152 102.46355017 207.09113451 103.61459177 207.94921875 104.765625 C213.98736829 112.95680614 219.34595521 121.47054105 224.375 130.3125 C224.73948242 130.94430176 225.10396484 131.57610352 225.47949219 132.22705078 C247.08534998 169.97532572 256.85198095 212.74189997 256.6875 255.9375 C256.68534485 256.95540619 256.6831897 257.97331238 256.68096924 259.02206421 C256.63129854 273.63113523 256.38040191 287.96325853 253.375 302.3125 C253.07698486 303.77478027 253.07698486 303.77478027 252.77294922 305.26660156 C242.65232806 353.6484774 220.7358123 397.63678269 186.375 433.3125 C185.74287598 433.97185547 185.11075195 434.63121094 184.45947266 435.31054688 C175.31502521 444.79880305 166.01765991 453.5387044 155.375 461.3125 C154.22394983 462.17056152 153.07290823 463.02863451 151.921875 463.88671875 C143.73224019 469.92427396 135.22961724 475.30707302 126.375 480.3125 C125.66778809 480.7146875 124.96057617 481.116875 124.23193359 481.53125 C101.09654164 494.5566741 75.92537591 503.30551461 49.9375 508.625 C49.21860596 508.77235596 48.49971191 508.91971191 47.7590332 509.0715332 C33.08339502 511.86090125 18.55831162 512.66142619 3.64770508 512.62817383 C0.70811513 512.6250221 -2.2304558 512.64854926 -5.16992188 512.67382812 C-18.54306192 512.71848737 -31.43916711 511.51301542 -44.625 509.3125 C-46.33055054 509.03031616 -46.33055054 509.03031616 -48.07055664 508.74243164 C-91.33802759 500.97044532 -132.38793216 480.98345309 -165.625 452.3125 C-166.37007813 451.67828125 -167.11515625 451.0440625 -167.8828125 450.390625 C-181.38779833 438.57948485 -194.05918743 425.82889772 -204.625 411.3125 C-205.48149066 410.16255169 -206.33826433 409.01281411 -207.1953125 407.86328125 C-213.23534209 399.67315742 -218.61867614 391.16870382 -223.625 382.3125 C-224.0271875 381.60528809 -224.429375 380.89807617 -224.84375 380.16943359 C-237.8691741 357.03404164 -246.61801461 331.86287591 -251.9375 305.875 C-252.08485596 305.15610596 -252.23221191 304.43721191 -252.3840332 303.6965332 C-255.35789088 288.05024391 -255.99800362 272.57681954 -255.9375 256.6875 C-255.93534485 255.66959381 -255.9331897 254.65168762 -255.93096924 253.60293579 C-255.88129854 238.99386477 -255.63040191 224.66174147 -252.625 210.3125 C-252.42632324 209.33764648 -252.22764648 208.36279297 -252.02294922 207.35839844 C-241.90232806 158.9765226 -219.9858123 114.98821731 -185.625 79.3125 C-184.99287598 78.65314453 -184.36075195 77.99378906 -183.70947266 77.31445312 C-174.56502521 67.82619695 -165.26765991 59.0862956 -154.625 51.3125 C-153.47394983 50.45443848 -152.32290823 49.59636549 -151.171875 48.73828125 C-142.98224019 42.70072604 -134.47961724 37.31792698 -125.625 32.3125 C-124.91778809 31.9103125 -124.21057617 31.508125 -123.48193359 31.09375 C-100.34654164 18.0683259 -75.17537591 9.31948539 -49.1875 4 C-48.46860596 3.85264404 -47.74971191 3.70528809 -47.0090332 3.5534668 C-31.36274391 0.57960912 -15.88931954 -0.06050362 0 0 Z " fill="#6986DE" transform="translate(255.625,-0.3125)"/>
<path d="M0 0 C0.66 0 1.32 0 2 0 C3.39657887 2.06077007 4.65624137 4.10735853 5.89453125 6.26171875 C6.27788132 6.91457352 6.66123138 7.56742828 7.05619812 8.24006653 C7.88258597 9.64891767 8.70568568 11.05970151 9.52587891 12.47216797 C11.68620291 16.19186057 13.87000764 19.89774163 16.05078125 23.60546875 C16.69836899 24.70875015 16.69836899 24.70875015 17.35903931 25.83432007 C20.6559026 31.442827 24.04180025 36.98940049 27.5 42.5 C32.88478964 51.10906377 38.08018271 59.82346944 43.25 68.5625 C49.32179824 78.82456663 55.42926348 89.06223244 61.625 99.25 C62.6452124 100.93017212 62.6452124 100.93017212 63.68603516 102.64428711 C66.98684832 108.07341025 70.30069699 113.49374998 73.64053345 118.89892578 C75.25172593 121.5086346 76.85698657 124.12196539 78.46160889 126.73571777 C79.23273294 127.9879802 80.00683169 129.23841606 80.78399658 130.48693848 C81.85533386 132.20821766 82.91622958 133.93598273 83.9765625 135.6640625 C84.58580566 136.64842285 85.19504883 137.6327832 85.82275391 138.64697266 C86.21124512 139.42347168 86.59973633 140.1999707 87 141 C86.67 141.66 86.34 142.32 86 143 C84.94651367 142.50822266 83.89302734 142.01644531 82.80761719 141.50976562 C62.09477248 131.84721877 41.3495753 122.27870128 20.42675781 113.078125 C19.71409256 112.76407211 19.00142731 112.45001923 18.26716614 112.12644958 C16.36641273 111.28940358 14.46438838 110.4552452 12.56225586 109.62133789 C8.66181149 107.84607567 4.8330168 105.9165084 1 104 C1 133.37 1 162.74 1 193 C-3.13908872 191.34436451 -6.89482457 189.50098851 -10.75 187.3125 C-11.43553955 186.92513672 -12.1210791 186.53777344 -12.82739258 186.13867188 C-20.24308917 181.91453067 -27.54433572 177.50003098 -34.85107422 173.09106445 C-40.76937247 169.52422896 -46.70267002 165.98753616 -52.66796875 162.5 C-53.3112059 162.12391602 -53.95444305 161.74783203 -54.61717224 161.36035156 C-57.7396886 159.53611556 -60.86426797 157.71549433 -63.9909668 155.8984375 C-71.09986112 151.75785525 -78.09742115 147.47697032 -85 143 C-83.60473828 139.22446023 -81.86296848 135.93671411 -79.75390625 132.51171875 C-79.09100586 131.42898682 -78.42810547 130.34625488 -77.74511719 129.23071289 C-77.39042358 128.65499542 -77.03572998 128.07927795 -76.67028809 127.4861145 C-74.74684365 124.36319316 -72.83633688 121.23238029 -70.92578125 118.1015625 C-70.52442963 117.44428665 -70.123078 116.7870108 -69.70956421 116.1098175 C-65.15378758 108.6350922 -60.70362086 101.0983534 -56.25 93.5625 C-51.08136621 84.82273509 -45.88313969 76.11007811 -40.5 67.5 C-35.07782329 58.82609195 -29.83806877 50.05043077 -24.625 41.25 C-23.81196628 39.87888493 -22.99889678 38.50779109 -22.18579102 37.13671875 C-18.65131578 31.17439887 -15.1217319 25.20929821 -11.60662842 19.23553467 C-10.54879733 17.44029239 -9.48777046 15.64698785 -8.42529297 13.85449219 C-7.12534605 11.6607719 -5.83115279 9.46362928 -4.54345703 7.26269531 C-3.97095215 6.29944336 -3.39844727 5.33619141 -2.80859375 4.34375 C-2.31157959 3.50005859 -1.81456543 2.65636719 -1.30249023 1.78710938 C-0.87266846 1.19736328 -0.44284668 0.60761719 0 0 Z " fill="#FDFEFE" transform="translate(255,116)"/>
<path d="M0 0 C0 4.35398412 -2.60358176 6.71079688 -5.1875 10 C-9.80055684 16.00241561 -14.19985556 22.10204802 -18.4375 28.375 C-25.28539206 38.485645 -32.43299002 48.36208907 -39.625 58.22949219 C-46.29906191 67.39429474 -52.82637982 76.63239625 -59.18432617 86.01953125 C-63.22291531 91.9480945 -67.45724506 97.69844244 -71.81030273 103.39892578 C-75.63034643 108.42506233 -79.1088657 113.59465613 -82.4765625 118.9375 C-82.97929687 119.618125 -83.48203125 120.29875 -84 121 C-84.66 121 -85.32 121 -86 121 C-87.21411133 119.54150391 -87.21411133 119.54150391 -88.58203125 117.4765625 C-89.09499756 116.712229 -89.60796387 115.94789551 -90.13647461 115.16040039 C-90.68956299 114.32371826 -91.24265137 113.48703613 -91.8125 112.625 C-92.99541593 110.86455342 -94.18036209 109.10546958 -95.3671875 107.34765625 C-95.97272461 106.45062988 -96.57826172 105.55360352 -97.20214844 104.62939453 C-99.87485744 100.72050318 -102.64766838 96.88828538 -105.4375 93.0625 C-110.02792186 86.75544223 -114.54094146 80.40061849 -119 74 C-123.4432255 67.62424424 -127.93378412 61.2882681 -132.5 55 C-137.66545975 47.88649581 -142.72513651 40.70458526 -147.74755859 33.48950195 C-152.32405997 26.92831295 -156.99290414 20.43820152 -161.73828125 13.99804688 C-164.8055089 9.7993355 -167.50608106 5.56422963 -170 1 C-166.05419309 2.45816388 -162.56178628 4.32018099 -158.94140625 6.45703125 C-158.36485794 6.79603455 -157.78830963 7.13503784 -157.19429016 7.48431396 C-155.31504701 8.59038862 -153.43876504 9.7013823 -151.5625 10.8125 C-150.24708313 11.5881071 -148.93148875 12.36341321 -147.61572266 13.13842773 C-144.33865052 15.06975881 -141.06393103 17.00503768 -137.78997803 18.94165039 C-135.24280738 20.44770075 -132.6936741 21.95041581 -130.14453125 23.453125 C-129.26200684 23.97398682 -128.37948242 24.49484863 -127.47021484 25.03149414 C-125.74342756 26.05018493 -124.01589048 27.06760582 -122.28759766 28.08374023 C-117.72885911 30.77024532 -113.1912705 33.48691285 -108.68054199 36.25309753 C-106.21123967 37.76508234 -103.73523596 39.26589451 -101.25860596 40.76583862 C-100.05427408 41.49934806 -98.85314637 42.23814705 -97.65545654 42.98245239 C-95.98548319 44.019764 -94.30349238 45.037652 -92.62109375 46.0546875 C-91.6561499 46.64749512 -90.69120605 47.24030273 -89.69702148 47.85107422 C-86.51193357 49.20791533 -85.23895463 49.10315312 -82 48 C-79.8678636 47.04518995 -79.8678636 47.04518995 -77.796875 45.8046875 C-76.99507813 45.34425049 -76.19328125 44.88381348 -75.3671875 44.40942383 C-74.50351562 43.90306396 -73.63984375 43.3967041 -72.75 42.875 C-71.82960938 42.34221436 -70.90921875 41.80942871 -69.9609375 41.26049805 C-61.89333545 36.57039327 -53.89511071 31.76415681 -45.90380859 26.94555664 C-37.4297186 21.83987509 -28.91223356 16.81170904 -20.375 11.8125 C-19.75367188 11.44847076 -19.13234375 11.08444153 -18.4921875 10.7093811 C-12.34546698 7.10911529 -6.19560785 3.5156895 0 0 Z " fill="#C0CBF6" transform="translate(341,275)"/>
<path d="M0 0 C0.66 0 1.32 0 2 0 C3.39657887 2.06077007 4.65624137 4.10735853 5.89453125 6.26171875 C6.46955635 7.2410009 6.46955635 7.2410009 7.05619812 8.24006653 C7.88258597 9.64891767 8.70568568 11.05970151 9.52587891 12.47216797 C11.68620291 16.19186057 13.87000764 19.89774163 16.05078125 23.60546875 C16.69836899 24.70875015 16.69836899 24.70875015 17.35903931 25.83432007 C20.6559026 31.442827 24.04180025 36.98940049 27.5 42.5 C32.88478964 51.10906377 38.08018271 59.82346944 43.25 68.5625 C49.32179824 78.82456663 55.42926348 89.06223244 61.625 99.25 C62.3051416 100.37011475 62.9852832 101.49022949 63.68603516 102.64428711 C66.98684832 108.07341025 70.30069699 113.49374998 73.64053345 118.89892578 C75.25172593 121.5086346 76.85698657 124.12196539 78.46160889 126.73571777 C79.23273294 127.9879802 80.00683169 129.23841606 80.78399658 130.48693848 C81.85533386 132.20821766 82.91622958 133.93598273 83.9765625 135.6640625 C84.58580566 136.64842285 85.19504883 137.6327832 85.82275391 138.64697266 C86.21124512 139.42347168 86.59973633 140.1999707 87 141 C86.67 141.66 86.34 142.32 86 143 C84.94651367 142.50822266 83.89302734 142.01644531 82.80761719 141.50976562 C62.09477248 131.84721877 41.3495753 122.27870128 20.42675781 113.078125 C19.71409256 112.76407211 19.00142731 112.45001923 18.26716614 112.12644958 C16.36641273 111.28940358 14.46438838 110.4552452 12.56225586 109.62133789 C8.66181149 107.84607567 4.8330168 105.9165084 1 104 C0.67 69.68 0.34 35.36 0 0 Z " fill="#C0CBF6" transform="translate(255,116)"/>
<path d="M0 0 C4.50580797 1.50193599 8.69569989 3.13937829 12.9765625 5.1328125 C13.98330772 5.59646713 13.98330772 5.59646713 15.01039124 6.06948853 C16.45983978 6.73710491 17.90869949 7.40600092 19.35702515 8.0760498 C23.25412032 9.87847664 27.15595928 11.67054158 31.05859375 13.4609375 C31.8682106 13.83238892 32.67782745 14.20384033 33.51197815 14.58654785 C44.05416768 19.41240311 54.66077226 24.09387055 65.27001953 28.77001953 C71.92113717 31.70636302 78.54392491 34.64927164 85 38 C83.82957474 41.51127579 83.3039169 41.68501845 80.1875 43.390625 C79.3725708 43.84477783 78.5576416 44.29893066 77.71801758 44.7668457 C76.37259888 45.50100708 76.37259888 45.50100708 75 46.25 C73.06498417 47.32948607 71.13144994 48.41163118 69.19921875 49.49609375 C68.18134277 50.0669873 67.1634668 50.63788086 66.11474609 51.22607422 C60.95845154 54.16271289 55.88805111 57.23908328 50.8125 60.3125 C40.93071651 66.28322632 30.97254249 72.09979352 20.94067383 77.8137207 C14.87252032 81.28407468 8.97511514 84.90737758 3.17529297 88.8125 C2.09852295 89.4003125 2.09852295 89.4003125 1 90 C0.34 89.67 -0.32 89.34 -1 89 C-0.67 59.63 -0.34 30.26 0 0 Z " fill="#8198ED" transform="translate(256,220)"/>
<path d="M0 0 C0 29.37 0 58.74 0 89 C-4.13908872 87.34436451 -7.89482457 85.50098851 -11.75 83.3125 C-12.43553955 82.92513672 -13.1210791 82.53777344 -13.82739258 82.13867188 C-21.24308917 77.91453067 -28.54433572 73.50003098 -35.85107422 69.09106445 C-41.76937247 65.52422896 -47.70267002 61.98753616 -53.66796875 58.5 C-54.63282448 57.93587402 -54.63282448 57.93587402 -55.61717224 57.36035156 C-58.7396886 55.53611556 -61.86426797 53.71549433 -64.9909668 51.8984375 C-72.09986112 47.75785525 -79.09742115 43.47697032 -86 39 C-85 37 -85 37 -82.4074707 36.08666992 C-81.28300537 35.72806885 -80.15854004 35.36946777 -79 35 C-76.47550662 33.89929522 -73.97572318 32.77612931 -71.48046875 31.61328125 C-70.75657455 31.27915726 -70.03268036 30.94503326 -69.28684998 30.6007843 C-67.72936504 29.88155133 -66.17252469 29.16092119 -64.61627197 28.43902588 C-60.47758653 26.51939888 -56.3340716 24.61023742 -52.19140625 22.69921875 C-51.34612366 22.30891479 -50.50084106 21.91861084 -49.62994385 21.51647949 C-41.6869839 17.85038158 -33.72949208 14.21665529 -25.76504517 10.59750366 C-24.3501334 9.95452337 -22.93539642 9.31115831 -21.52084351 8.66738892 C-19.54812899 7.76960989 -17.57493498 6.8728942 -15.6015625 5.9765625 C-14.49119629 5.47205566 -13.38083008 4.96754883 -12.23681641 4.44775391 C-10.63459229 3.73111572 -10.63459229 3.73111572 -9 3 C-8.06181427 2.5785672 -8.06181427 2.5785672 -7.10467529 2.14862061 C-2.23347349 0 -2.23347349 0 0 0 Z " fill="#C1CBF6" transform="translate(256,220)"/>
<path d="M0 0 C3.94580691 1.45816388 7.43821372 3.32018099 11.05859375 5.45703125 C11.63509674 5.79598923 12.21159973 6.1349472 12.80557251 6.48417664 C14.68489007 7.59024985 16.56122825 8.70126925 18.4375 9.8125 C19.75365955 10.58882201 21.06998625 11.36486071 22.38647461 12.140625 C25.03058112 13.6994444 27.67349167 15.26026225 30.31542969 16.82275391 C33.48013987 18.69395725 36.64921773 20.55760063 39.8203125 22.41796875 C50.36754604 28.61328245 60.8523078 34.90918178 71.3125 41.25 C71.94157257 41.6308374 72.57064514 42.0116748 73.21878052 42.40405273 C74.9971198 43.48126399 76.77417916 44.56055165 78.55078125 45.640625 C79.57856689 46.26485352 80.60635254 46.88908203 81.6652832 47.53222656 C84 49 84 49 85 50 C85.09425595 52.14743549 85.11742648 54.29801026 85.11352539 56.44750977 C85.11367142 57.12065216 85.11381744 57.79379456 85.1139679 58.48733521 C85.11326878 60.72205784 85.10547652 62.9566981 85.09765625 65.19140625 C85.09579206 66.73697362 85.09436816 68.28254157 85.09336853 69.82810974 C85.0895434 73.90357077 85.07971317 77.97899637 85.06866455 82.05444336 C85.05845032 86.21011882 85.05387089 90.36579999 85.04882812 94.52148438 C85.03809089 102.68100587 85.02101454 110.84049853 85 119 C82.01339656 116.05010744 79.28043052 113.23508187 76.90625 109.76953125 C76.35767334 108.97603271 75.80909668 108.18253418 75.24389648 107.36499023 C74.66841064 106.52266846 74.0929248 105.68034668 73.5 104.8125 C72.25250533 103.00698054 71.00378152 101.2023098 69.75390625 99.3984375 C69.12629395 98.4919043 68.49868164 97.58537109 67.85205078 96.65136719 C65.09837333 92.70924524 62.27036243 88.82290206 59.4375 84.9375 C54.98904811 78.82467512 50.67652834 72.6346887 46.4375 66.375 C41.92771166 59.71882011 37.24402438 53.24086245 32.37646484 46.84277344 C28.49646482 41.72142909 24.83539299 36.47667404 21.22973633 31.15966797 C17.0915065 25.07574673 12.78011567 19.12405375 8.41430664 13.20166016 C5.29456373 8.93407354 2.53159575 4.64227557 0 0 Z " fill="#FDFDFE" transform="translate(171,276)"/>
</svg>
