<?xml version="1.0" encoding="UTF-8"?>
<svg version="1.1" xmlns="http://www.w3.org/2000/svg" width="512" height="512">
<path d="M0 0 C0.60102539 0.44698242 1.20205078 0.89396484 1.82128906 1.35449219 C10.72814845 8.02383326 18.98849243 15.28576543 27 23 C27.52368164 23.50176758 28.04736328 24.00353516 28.58691406 24.52050781 C73.34975974 67.62033755 98.49534336 128.93384451 100.18359375 190.70703125 C101.28242188 255.76864502 77.41565987 318.01072901 32.29296875 364.92578125 C23.56042108 373.87804193 14.77008274 382.48545291 4.62255859 389.82177734 C2.98600262 391.01016421 1.37738712 392.23017469 -0.23046875 393.45703125 C-50.27736119 431.08482512 -116.05889991 445.59724767 -177.62109375 437.0390625 C-233.23551049 428.42503583 -288.68464526 400.89421138 -325 357 C-325.84046875 356.03578125 -326.6809375 355.0715625 -327.546875 354.078125 C-370.0136441 305.26625973 -388.44308076 241.43687888 -384.79785156 177.45166016 C-381.11124242 129.89440216 -363.40153414 82.92315357 -333 46 C-332.22140625 45.01902344 -331.4428125 44.03804688 -330.640625 43.02734375 C-318.20343789 27.75123349 -304.02366027 13.49269808 -288 2 C-286.9378125 1.22785156 -285.875625 0.45570312 -284.78125 -0.33984375 C-204.52552256 -57.31751432 -100.73075005 -59.77238656 0 0 Z M-194 21 C-198.96428446 49.08963059 -203.73532512 77.20397953 -208.36401367 105.35058594 C-209.27491482 110.88965254 -210.18914637 116.42816393 -211.10426235 121.96653557 C-211.81659208 126.27953719 -212.52737477 130.59279259 -213.23765755 134.90613174 C-213.5749197 136.95321218 -213.91263658 139.00021775 -214.25082207 141.04714584 C-214.71622426 143.86564842 -215.1795724 146.68448081 -215.64233398 149.50341797 C-215.85025574 150.7589019 -215.85025574 150.7589019 -216.06237793 152.03974915 C-216.74892528 155.9990205 -216.74892528 155.9990205 -217 160 C-217.65363525 160.09063721 -218.30727051 160.18127441 -218.98071289 160.2746582 C-223.00030638 161.24030972 -226.55717032 162.89168408 -230.30859375 164.60546875 C-231.11176529 164.96715652 -231.91493683 165.3288443 -232.7424469 165.70149231 C-235.30969263 166.85863368 -237.87369857 168.02274993 -240.4375 169.1875 C-242.96211468 170.32959336 -245.48739969 171.47018577 -248.01309204 172.6098938 C-249.66118008 173.35367346 -251.30878842 174.098517 -252.9559021 174.8444519 C-259.07011762 177.60595232 -265.22920968 180.24112059 -271.42993164 182.80200195 C-274.0930909 183.86498846 -274.0930909 183.86498846 -276 186 C-276.80969257 188.3606634 -277.52987985 190.68945291 -278.19921875 193.08984375 C-278.39852493 193.79017227 -278.59783112 194.49050079 -278.80317688 195.21205139 C-279.22247321 196.69307715 -279.63833762 198.17507817 -280.05102539 199.65795898 C-280.6849316 201.92830123 -281.33489661 204.19361714 -281.98632812 206.45898438 C-282.39160697 207.89816133 -282.79593593 209.33760619 -283.19921875 210.77734375 C-283.39496994 211.45554672 -283.59072113 212.13374969 -283.79240417 212.83250427 C-284.69269366 216.11642082 -285.10227508 217.69317475 -284 221 C-278.52662418 218.60258694 -273.05384065 216.20382805 -267.58154297 213.80395508 C-265.72980717 212.99208436 -263.87792511 212.18054714 -262.02587891 211.36938477 C-259.32413333 210.18599376 -256.62296264 209.00129813 -253.921875 207.81640625 C-253.12827576 207.46912979 -252.33467651 207.12185333 -251.51702881 206.76405334 C-241.98092425 202.57766383 -232.49382703 198.28114213 -223 194 C-223.11338211 194.68083743 -223.22676422 195.36167486 -223.34358215 196.06314373 C-226.10212297 212.62935578 -228.85620656 229.19630201 -231.60533142 245.76407909 C-232.93489424 253.7761091 -234.26596445 261.78788323 -235.60058594 269.79907227 C-236.76383515 276.78160691 -237.92425354 283.76460508 -239.08127499 290.74817449 C-239.69400637 294.44589594 -240.30815278 298.14336977 -240.9256897 301.84029198 C-241.61500906 305.96727033 -242.29800632 310.09527088 -242.98046875 314.22338867 C-243.28904312 316.06189644 -243.28904312 316.06189644 -243.60385132 317.93754578 C-243.78896271 319.06350159 -243.9740741 320.1894574 -244.16479492 321.34953308 C-244.40814827 322.81380124 -244.40814827 322.81380124 -244.65641785 324.30765057 C-245.10548971 327.37426554 -245.10548971 327.37426554 -245 332 C-171.08 332 -97.16 332 -21 332 C-10.91110587 305.36593786 -10.91110587 305.36593786 -6 278 C-61.44 278 -116.88 278 -174 278 C-171.525 263.15 -171.525 263.15 -169 248 C-167.94912897 241.40796303 -166.90483072 234.81579008 -165.88671875 228.21875 C-165.62484506 226.52721811 -165.36294765 224.83568988 -165.10102844 223.14416504 C-164.5646432 219.67671686 -164.02977005 216.20903944 -163.49584961 212.74121094 C-162.81321523 208.3095299 -162.12460486 203.87879752 -161.43475628 199.44823456 C-160.89725713 195.9897301 -160.36380623 192.53061017 -159.83149147 189.07130432 C-159.57899927 187.43487274 -159.32503834 185.79866701 -159.06952477 184.16270447 C-158.71614514 181.89751611 -158.3684854 179.63151911 -158.0222168 177.36523438 C-157.82411911 176.08338257 -157.62602142 174.80153076 -157.42192078 173.48083496 C-157.03346657 170.27609828 -156.91890865 167.22351177 -157 164 C-156.45803482 163.82966248 -155.91606964 163.65932495 -155.35768127 163.48382568 C-149.64992008 161.64218555 -144.191052 159.45393696 -138.71484375 157.015625 C-137.85548721 156.63694275 -136.99613068 156.2582605 -136.11073303 155.86810303 C-133.38463443 154.66584787 -130.66101937 153.45808489 -127.9375 152.25 C-125.24756543 151.06158783 -122.55714438 149.87429548 -119.86611938 148.68835449 C-118.10568489 147.90966765 -116.34733368 147.126253 -114.59115601 146.3380127 C-110.50510272 144.5093341 -106.42209577 142.75259047 -102.23095703 141.17773438 C-95.10367949 138.71938393 -95.10367949 138.71938393 -89.48095703 134.0222168 C-88.65811649 131.6637106 -88.32505332 129.47576794 -88 127 C-87.41646908 124.90057564 -86.80648446 122.80839459 -86.17578125 120.72265625 C-85.5523548 118.5032581 -84.93129704 116.28319334 -84.3125 114.0625 C-83.99216797 112.92748047 -83.67183594 111.79246094 -83.34179688 110.62304688 C-83.03951172 109.54216797 -82.73722656 108.46128906 -82.42578125 107.34765625 C-82.01453003 105.87824585 -82.01453003 105.87824585 -81.5949707 104.37915039 C-80.91913137 102.08536111 -80.91913137 102.08536111 -81 100 C-87.22248042 101.95916919 -93.18528793 104.26587396 -99.14453125 106.9140625 C-100.41933601 107.47497086 -100.41933601 107.47497086 -101.71989441 108.04721069 C-104.41910101 109.23605856 -107.11578924 110.43050335 -109.8125 111.625 C-111.57731924 112.40269496 -113.34229224 113.18004107 -115.10742188 113.95703125 C-127.09962588 119.24254714 -139.05592421 124.60673046 -151 130 C-150.70497589 128.88107361 -150.40995178 127.76214722 -150.10598755 126.60931396 C-148.92092278 121.85950731 -148.09295309 117.08012801 -147.30419922 112.25097656 C-147.14785004 111.31013718 -146.99150085 110.36929779 -146.83041382 109.39994812 C-146.31852729 106.31404452 -145.81144378 103.22737489 -145.3046875 100.140625 C-144.94901856 97.98684498 -144.59315004 95.8330979 -144.23709106 93.67938232 C-143.49364081 89.17771907 -142.75256629 84.67567291 -142.01318359 80.17333984 C-141.06489002 74.40004942 -140.11072267 68.62774797 -139.15479851 62.85571671 C-138.41985596 58.41408313 -137.68797768 53.97194888 -136.95703506 49.52965546 C-136.60631206 47.40041384 -136.25463964 45.27132838 -135.90200424 43.14240265 C-135.4105614 40.17258523 -134.92323672 37.20212083 -134.43701172 34.23144531 C-134.29054199 33.35137314 -134.14407227 32.47130096 -133.99316406 31.56455994 C-133.86142792 30.75444962 -133.72969177 29.94433929 -133.59396362 29.10968018 C-133.47857176 28.40844654 -133.36317989 27.70721291 -133.24429131 26.98472977 C-132.91855766 24.67161127 -132.91855766 24.67161127 -133 21 C-153.13 21 -173.26 21 -194 21 Z " fill="#464646" transform="translate(399,58)"/>
</svg>
