<?xml version="1.0" encoding="UTF-8"?>
<svg version="1.1" xmlns="http://www.w3.org/2000/svg" width="512" height="512">
<path d="M0 0 C1.31863169 0.00301457 1.31863169 0.00301457 2.6639024 0.00609004 C25.45982158 0.07718007 48.20923902 0.911614 70.97643209 1.99910808 C84.20081791 2.62377005 97.42085043 3.04519434 110.65673828 3.33251953 C111.59805843 3.35301196 112.53937857 3.3735044 113.50922357 3.39461781 C118.23493002 3.49646331 122.96069827 3.59501983 127.68650794 3.69194627 C166.46252714 4.49144574 205.20168125 5.85644831 243.9453125 7.6171875 C228.42832023 39.50048153 196.46390724 78.35753501 161.8976357 90.3262012 C137.65469478 97.72516738 110.98853483 97.31263081 85.890625 97.234375 C85.01153721 97.23236529 84.13244941 97.23035557 83.2267226 97.22828496 C60.43080342 97.15719493 37.68138598 96.322761 14.91419291 95.23526692 C1.68980709 94.61060495 -11.53022543 94.18918066 -24.76611328 93.90185547 C-25.70743343 93.88136304 -26.64875357 93.8608706 -27.61859857 93.83975719 C-32.34430502 93.73791169 -37.07007327 93.63935517 -41.79588294 93.54242873 C-80.57190214 92.74292926 -119.31105625 91.37792669 -158.0546875 89.6171875 C-124.43607629 20.53987876 -71.40196393 -0.22263283 0 0 Z " fill="#000000" transform="translate(213.0546875,333.3828125)"/>
<path d="M0 0 C39.64946281 -1.8502643 79.29312462 -3.24999072 118.97746468 -4.08522636 C123.71128313 -4.18522678 128.44501768 -4.2887779 133.17871094 -4.39453125 C134.12070406 -4.41551608 135.06269718 -4.43650092 136.03323555 -4.45812166 C149.23615441 -4.75959382 162.41974507 -5.25175528 175.61006927 -5.8987484 C198.32034688 -7.01247273 221.01065501 -7.75693941 243.75 -7.8125 C244.62971529 -7.81545326 245.50943058 -7.81840652 246.41580391 -7.82144928 C292.10539304 -7.92027543 328.27120813 -4.26032971 361.94238281 28.87817383 C402 70.15682162 402 70.15682162 402 82 C362.35053719 83.8502643 322.70687538 85.24999072 283.02253532 86.08522636 C278.28871687 86.18522678 273.55498232 86.2887779 268.82128906 86.39453125 C267.87929594 86.41551608 266.93730282 86.43650092 265.96676445 86.45812166 C252.76384559 86.75959382 239.58025493 87.25175528 226.38993073 87.8987484 C203.67965312 89.01247273 180.98934499 89.75693941 158.25 89.8125 C156.93042706 89.81692989 156.93042706 89.81692989 155.58419609 89.82144928 C109.89460696 89.92027543 73.72879187 86.26032971 40.05761719 53.12182617 C0 11.84317838 0 11.84317838 0 0 Z " fill="#000000" transform="translate(55,215)"/>
<path d="M0 0 C1.31863169 0.00301457 1.31863169 0.00301457 2.6639024 0.00609004 C25.45982158 0.07718007 48.20923902 0.911614 70.97643209 1.99910808 C84.20081791 2.62377005 97.42085043 3.04519434 110.65673828 3.33251953 C111.59805843 3.35301196 112.53937857 3.3735044 113.50922357 3.39461781 C118.23493002 3.49646331 122.96069827 3.59501983 127.68650794 3.69194627 C166.46252714 4.49144574 205.20168125 5.85644831 243.9453125 7.6171875 C228.42832023 39.50048153 196.46390724 78.35753501 161.8976357 90.3262012 C137.65469478 97.72516738 110.98853483 97.31263081 85.890625 97.234375 C85.01153721 97.23236529 84.13244941 97.23035557 83.2267226 97.22828496 C60.43080342 97.15719493 37.68138598 96.322761 14.91419291 95.23526692 C1.68980709 94.61060495 -11.53022543 94.18918066 -24.76611328 93.90185547 C-25.70743343 93.88136304 -26.64875357 93.8608706 -27.61859857 93.83975719 C-32.34430502 93.73791169 -37.07007327 93.63935517 -41.79588294 93.54242873 C-80.57190214 92.74292926 -119.31105625 91.37792669 -158.0546875 89.6171875 C-124.43607629 20.53987876 -71.40196393 -0.22263283 0 0 Z " fill="#000000" transform="translate(213.0546875,81.3828125)"/>
</svg>
