<?xml version="1.0" encoding="UTF-8"?>
<svg version="1.1" xmlns="http://www.w3.org/2000/svg" width="512" height="512">
<path d="M0 0 C1.01790619 0.00215515 2.03581238 0.0043103 3.08456421 0.00653076 C17.69363523 0.05620146 32.02575853 0.30709809 46.375 3.3125 C47.34985352 3.51117676 48.32470703 3.70985352 49.32910156 3.91455078 C97.7109774 14.03517194 141.69928269 35.9516877 177.375 70.3125 C178.3640332 71.26068604 178.3640332 71.26068604 179.37304688 72.22802734 C188.86130305 81.37247479 197.6012044 90.66984009 205.375 101.3125 C206.23306152 102.46355017 207.09113451 103.61459177 207.94921875 104.765625 C213.98736829 112.95680614 219.34595521 121.47054105 224.375 130.3125 C224.73948242 130.94430176 225.10396484 131.57610352 225.47949219 132.22705078 C247.08534998 169.97532572 256.85198095 212.74189997 256.6875 255.9375 C256.68534485 256.95540619 256.6831897 257.97331238 256.68096924 259.02206421 C256.63129854 273.63113523 256.38040191 287.96325853 253.375 302.3125 C253.07698486 303.77478027 253.07698486 303.77478027 252.77294922 305.26660156 C242.65232806 353.6484774 220.7358123 397.63678269 186.375 433.3125 C185.74287598 433.97185547 185.11075195 434.63121094 184.45947266 435.31054688 C175.31502521 444.79880305 166.01765991 453.5387044 155.375 461.3125 C154.22394983 462.17056152 153.07290823 463.02863451 151.921875 463.88671875 C143.73224019 469.92427396 135.22961724 475.30707302 126.375 480.3125 C125.66778809 480.7146875 124.96057617 481.116875 124.23193359 481.53125 C101.09654164 494.5566741 75.92537591 503.30551461 49.9375 508.625 C49.21860596 508.77235596 48.49971191 508.91971191 47.7590332 509.0715332 C33.08339502 511.86090125 18.55831162 512.66142619 3.64770508 512.62817383 C0.70811513 512.6250221 -2.2304558 512.64854926 -5.16992188 512.67382812 C-18.54306192 512.71848737 -31.43916711 511.51301542 -44.625 509.3125 C-46.33055054 509.03031616 -46.33055054 509.03031616 -48.07055664 508.74243164 C-91.33802759 500.97044532 -132.38793216 480.98345309 -165.625 452.3125 C-166.37007813 451.67828125 -167.11515625 451.0440625 -167.8828125 450.390625 C-181.38779833 438.57948485 -194.05918743 425.82889772 -204.625 411.3125 C-205.48149066 410.16255169 -206.33826433 409.01281411 -207.1953125 407.86328125 C-213.23534209 399.67315742 -218.61867614 391.16870382 -223.625 382.3125 C-224.0271875 381.60528809 -224.429375 380.89807617 -224.84375 380.16943359 C-237.8691741 357.03404164 -246.61801461 331.86287591 -251.9375 305.875 C-252.08485596 305.15610596 -252.23221191 304.43721191 -252.3840332 303.6965332 C-255.35789088 288.05024391 -255.99800362 272.57681954 -255.9375 256.6875 C-255.93534485 255.66959381 -255.9331897 254.65168762 -255.93096924 253.60293579 C-255.88129854 238.99386477 -255.63040191 224.66174147 -252.625 210.3125 C-252.42632324 209.33764648 -252.22764648 208.36279297 -252.02294922 207.35839844 C-241.90232806 158.9765226 -219.9858123 114.98821731 -185.625 79.3125 C-184.99287598 78.65314453 -184.36075195 77.99378906 -183.70947266 77.31445312 C-174.56502521 67.82619695 -165.26765991 59.0862956 -154.625 51.3125 C-153.47394983 50.45443848 -152.32290823 49.59636549 -151.171875 48.73828125 C-142.98224019 42.70072604 -134.47961724 37.31792698 -125.625 32.3125 C-124.91778809 31.9103125 -124.21057617 31.508125 -123.48193359 31.09375 C-100.34654164 18.0683259 -75.17537591 9.31948539 -49.1875 4 C-48.46860596 3.85264404 -47.74971191 3.70528809 -47.0090332 3.5534668 C-31.36274391 0.57960912 -15.88931954 -0.06050362 0 0 Z " fill="#FF0E12" transform="translate(255.625,-0.3125)"/>
<path d="M0 0 C0.73814941 0.1277179 1.47629883 0.25543579 2.23681641 0.38702393 C21.11421417 3.65491698 39.935035 7.23204463 58.7592926 10.79069519 C69.02401621 12.73083457 79.29238478 14.65112469 89.5625 16.5625 C90.43086487 16.72421692 91.29922974 16.88593384 92.19390869 17.05255127 C108.81918871 20.14707294 125.45649304 23.17446525 142.09838867 26.17823792 C144.62335257 26.63607648 147.14716222 27.09990056 149.67089844 27.56445312 C153.29493799 28.23037543 156.92340572 28.86297643 160.55566406 29.48242188 C162.44601643 29.81610676 164.3363174 30.15008297 166.2265625 30.484375 C167.09832123 30.62715881 167.97007996 30.76994263 168.86825562 30.91705322 C175.67892394 32.14576354 180.27490453 34.84603931 185.328125 39.6015625 C185.93454834 40.16931396 186.54097168 40.73706543 187.16577148 41.32202148 C187.79169189 41.91700439 188.4176123 42.5119873 189.0625 43.125 C189.72000244 43.74383057 190.37750488 44.36266113 191.05493164 45.00024414 C195.67337052 49.36558692 200.17249641 53.83279506 204.63671875 58.35546875 C206.55416802 60.24537836 208.51074082 62.00924431 210.5625 63.75 C214.64867108 67.24641443 218.44364642 71.01765177 222.25 74.8125 C222.8780957 75.43608398 223.50619141 76.05966797 224.15332031 76.70214844 C224.74081055 77.29157227 225.32830078 77.88099609 225.93359375 78.48828125 C226.4639624 79.01977783 226.99433105 79.55127441 227.54077148 80.09887695 C229.40487851 82.15265124 229.80498928 83.44317979 230.171875 86.21875 C229.70379442 90.49252925 227.75332343 92.8306971 225.0625 96 C224.57096436 96.60166992 224.07942871 97.20333984 223.57299805 97.82324219 C222.00412383 99.73136594 220.41281358 101.61819015 218.8125 103.5 C218.03543701 104.41555664 218.03543701 104.41555664 217.24267578 105.34960938 C214.70380511 108.33200326 212.14903011 111.3001359 209.5859375 114.26171875 C206.58292953 117.74557397 203.72168548 121.33223709 200.87109375 124.94140625 C198.4043838 128.0072412 195.86377586 131.00449587 193.3125 134 C189.41745663 138.57417234 185.6247629 143.21160285 181.89453125 147.921875 C179.48165908 150.90967168 176.99453921 153.83056197 174.5 156.75 C170.69505834 161.2063918 167.02451588 165.74171687 163.4375 170.375 C158.96265437 176.14753471 154.25426257 181.67759172 149.44238281 187.17089844 C145.78237855 191.35594814 142.26342987 195.62287526 138.82421875 199.9921875 C136.44156911 202.96240316 133.97392373 205.85600849 131.5 208.75 C127.69494609 213.20629847 124.02460462 217.74179223 120.4375 222.375 C115.98335333 228.11873736 111.30320264 233.62734753 106.51708984 239.09619141 C101.82242985 244.46412203 97.29427386 249.95308793 92.8125 255.5 C91.16833625 257.52219195 89.52252114 259.54304245 87.875 261.5625 C87.14410156 262.46097656 86.41320312 263.35945313 85.66015625 264.28515625 C83.8125 266.5 83.8125 266.5 81.8125 268.5 C79.33544922 268.41894531 79.33544922 268.41894531 76.8125 267.5 C75.47314453 265.49511719 75.47314453 265.49511719 74.4453125 262.796875 C74.04320557 261.77440674 73.64109863 260.75193848 73.22680664 259.69848633 C72.80133545 258.56048584 72.37586426 257.42248535 71.9375 256.25 C71.21498426 254.40029529 70.49240686 252.55061377 69.76777649 250.70173645 C68.9840077 248.69514994 68.20863487 246.68545303 67.43408203 244.67529297 C64.9612448 238.2809026 62.37620978 231.93174682 59.79592896 225.58013916 C58.85830135 223.27138226 57.92307826 220.96166095 56.98803711 218.65185547 C46.17637598 191.97776332 34.98590429 165.45799675 23.86547852 138.91162109 C20.53495654 130.96073491 17.20757778 123.00853522 13.88165283 115.0557251 C12.83303585 112.54908933 11.78352138 110.04283085 10.73388672 107.53662109 C1.63747056 85.80672936 -7.2466261 63.99510766 -16 42.125 C-16.4806189 40.92524536 -16.96123779 39.72549072 -17.4564209 38.48937988 C-18.8338829 35.04850464 -20.20854252 31.60652544 -21.58203125 28.1640625 C-21.98861465 27.1479892 -22.39519806 26.13191589 -22.81410217 25.08505249 C-23.95133085 22.2281451 -25.07471606 19.36651259 -26.1875 16.5 C-26.57586029 15.50127869 -26.96422058 14.50255737 -27.36434937 13.47357178 C-27.73226593 12.50051086 -28.1001825 11.52744995 -28.47924805 10.52490234 C-28.80966599 9.65634613 -29.14008392 8.78778992 -29.48051453 7.89291382 C-30.54789839 4.28016972 -30.32924032 2.07745302 -29.1875 -1.5 C-21.82688412 -6.40707725 -8.28222978 -1.44868434 0 0 Z " fill="#FFFBFB" transform="translate(158.1875,142.5)"/>
<path d="M0 0 C5.45998925 3.88909849 10.43574207 8.14163143 15.3828125 12.66015625 C17.92873117 14.93628354 20.5322456 17.10294711 23.1875 19.25 C28.32694428 23.41084769 33.32326152 27.71734489 38.30908203 32.05932617 C42.89043346 36.0464122 47.50710443 39.98785505 52.15136719 43.90136719 C56.16384277 47.28482027 60.14702893 50.70108801 64.125 54.125 C68.23088576 57.65525227 72.36310651 61.14325509 76.5625 64.5625 C77.42617187 65.27664062 78.28984375 65.99078125 79.1796875 66.7265625 C81.28324499 68.42222796 83.39962695 70.04381683 85.5703125 71.6484375 C86.77630794 72.57777956 87.98204107 73.50746213 89.1875 74.4375 C89.76508057 74.84363525 90.34266113 75.24977051 90.93774414 75.66821289 C93.28406401 77.51779097 94.88264904 79.10640799 95.27990723 82.13140869 C95.14201322 88.18641684 94.65277165 94.10949499 93.86328125 100.11328125 C93.74359482 101.0652388 93.62390839 102.01719635 93.50059509 102.9980011 C93.24329545 105.04165266 92.98338207 107.08497657 92.72106934 109.12799072 C92.02061404 114.58754478 91.3404597 120.04962261 90.66015625 125.51171875 C90.52068573 126.62889282 90.38121521 127.74606689 90.23751831 128.89709473 C88.57368344 142.30482973 87.10451545 155.73353604 85.6496582 169.1652832 C84.56642266 179.13126718 83.38733695 189.07127931 82 199 C79.95157516 196.95157516 79.32238422 195.6927374 78.25439453 193.05249023 C77.91788879 192.22783264 77.58138306 191.40317505 77.23468018 190.55352783 C76.87106384 189.64769958 76.50744751 188.74187134 76.1328125 187.80859375 C75.74631531 186.85756775 75.35981812 185.90654175 74.96160889 184.92669678 C73.678085 181.76549682 72.40163515 178.6014875 71.125 175.4375 C70.22465808 173.21698597 69.32377104 170.9966929 68.42236328 168.77661133 C66.54571856 164.15336771 64.67144538 159.5291732 62.79882812 154.90429688 C58.9236459 145.33846543 55.02096959 135.78388432 51.11761475 126.22952271 C49.86576224 123.1648852 48.6146491 120.09994686 47.36376953 117.03491211 C42.2827186 104.58519112 37.19495855 92.13822875 32.10211182 79.69332886 C31.00911652 77.02227884 29.91637326 74.35112587 28.82373047 71.67993164 C28.4622995 70.79634476 28.10086853 69.91275787 27.72848511 69.00239563 C26.99078297 67.19892312 26.25309178 65.39544612 25.51541138 63.59196472 C23.44628629 58.53383393 21.37607801 53.47614882 19.3046875 48.41894531 C16.98546481 42.75654467 14.66818016 37.09335408 12.35205078 31.4296875 C11.4578917 29.24418057 10.56304617 27.05895435 9.66748047 24.87402344 C8.42235771 21.83601771 7.17965754 18.79703159 5.9375 15.7578125 C5.56753906 14.85676788 5.19757813 13.95572327 4.81640625 13.02737427 C3.06052733 8.72426417 1.39926919 4.4361546 0 0 Z " fill="#FF0F13" transform="translate(155,169)"/>
<path d="M0 0 C-1.65187741 3.91730928 -4.30435942 6.8907557 -7.0625 10.0625 C-8.068422 11.23506522 -9.07362121 12.40825086 -10.078125 13.58203125 C-10.57634766 14.16291504 -11.07457031 14.74379883 -11.58789062 15.34228516 C-13.52766713 17.61944326 -15.42313756 19.93091415 -17.3125 22.25 C-25.84715826 32.72365934 -34.41257928 43.16952566 -43.16308594 53.46386719 C-47.5117715 58.5862255 -51.76183759 63.78614553 -56 69 C-61.23789344 75.44373941 -66.5338025 81.83016662 -71.90917969 88.15917969 C-76.34061349 93.38448826 -80.67756629 98.68426015 -85 104 C-91.28440953 111.70813416 -97.62148172 119.36974745 -104 127 C-105.14278585 123.5202638 -104.89057096 120.79804143 -104.3984375 117.19140625 C-104.24052734 115.99257813 -104.08261719 114.79375 -103.91992188 113.55859375 C-103.83154053 112.91132324 -103.74315918 112.26405273 -103.65209961 111.59716797 C-103.16442479 108.01630284 -102.70355416 104.43199135 -102.2421875 100.84765625 C-102.1418219 100.07060333 -102.0414563 99.29355042 -101.93804932 98.49295044 C-100.66195667 88.51011861 -99.59080557 78.50441728 -98.5 68.5 C-96.51001082 50.30938147 -94.34941344 32.14767448 -92 14 C-91.36199463 13.89453857 -90.72398926 13.78907715 -90.06665039 13.68041992 C-78.44600808 11.75738465 -66.82909513 9.82897438 -55.2421875 7.7109375 C-51.67444454 7.08761388 -48.09437723 6.5811374 -44.5078125 6.078125 C-39.34833239 5.35127301 -34.20269151 4.56262097 -29.0625 3.7109375 C-28.40009308 3.60159882 -27.73768616 3.49226013 -27.0552063 3.37960815 C-24.34569351 2.93157719 -21.63645172 2.48210029 -18.92822266 2.02636719 C-16.91117369 1.68772808 -14.89319968 1.35513992 -12.875 1.0234375 C-11.69679688 0.82669434 -10.51859375 0.62995117 -9.3046875 0.42724609 C-6.15845289 0.02048556 -3.1678397 -0.07883492 0 0 Z " fill="#FF1014" transform="translate(358,241)"/>
<path d="M0 0 C5.72104465 0.5673977 11.34905214 1.3494385 16.9921875 2.4609375 C17.75082092 2.6071051 18.50945435 2.75327271 19.29107666 2.90386963 C20.94614268 3.22297296 22.60091869 3.54358342 24.25543213 3.86553955 C28.89268951 4.76740556 33.53238005 5.656604 38.171875 6.546875 C39.6809996 6.83680832 39.6809996 6.83680832 41.22061157 7.13259888 C53.23052674 9.43549554 65.25279944 11.67195132 77.27520752 13.90853882 C81.10863964 14.62195527 84.9418043 15.33679289 88.77490234 16.05200195 C103.53729222 18.8062537 103.53729222 18.8062537 118.30783081 21.51635742 C121.36331075 22.07213989 124.41798894 22.63224865 127.47259521 23.19281006 C129.43409253 23.55048201 131.39695953 23.90061714 133.35986328 24.25048828 C134.4889209 24.45786621 135.61797852 24.66524414 136.78125 24.87890625 C137.73064453 25.0497876 138.68003906 25.22066895 139.65820312 25.39672852 C142 26 142 26 145 28 C138.87093944 33.21311192 132.74085535 38.42066278 126.5 43.5 C122.46016797 46.78823537 118.4690947 50.12723132 114.5 53.5 C109.50589782 57.7434708 104.47147606 61.93103674 99.37109375 66.046875 C97.38606971 67.68198541 95.51023398 69.37887998 93.625 71.125 C91 73 91 73 88.73828125 72.953125 C84.97936184 71.64474221 82.45293993 69.2612637 79.5625 66.625 C78.31599695 65.52095445 77.06723852 64.41945083 75.81640625 63.3203125 C75.18234863 62.7624707 74.54829102 62.20462891 73.89501953 61.62988281 C71.0100146 59.14852583 68.01334663 56.82240712 65 54.5 C59.60140585 50.3207838 54.40436825 45.95602511 49.25 41.48046875 C45.25632874 38.03057862 41.17191329 34.73137034 37 31.5 C31.61126709 27.32613768 26.41793619 22.97399178 21.27636719 18.50024414 C16.46854926 14.34057219 11.50469126 10.40839412 6.44140625 6.56445312 C3.75573251 4.5016804 1.89870159 2.84805239 0 0 Z " fill="#FF1013" transform="translate(169,162)"/>
<path d="M0 0 C6.32165769 4.29872723 11.50128327 9.37501791 16.83520508 14.80615234 C20.62292564 18.65495689 24.48003328 22.32036869 28.64453125 25.765625 C30 27 30 27 31 29 C13.66617614 32.44212639 -3.71371378 35.56683504 -21.125 38.58813477 C-21.95444122 38.73208176 -22.78388245 38.87602875 -23.63845825 39.02433777 C-25.25282521 39.30414436 -26.86730424 39.58330522 -28.48190308 39.86177063 C-33.5909188 40.74519513 -38.68826692 41.6772354 -43.77563477 42.67895508 C-46.20992976 43.03029938 -48.54380364 43.05505221 -51 43 C-47.2932842 39.19610438 -43.42137021 35.68804483 -39.375 32.25 C-38.76035889 31.72559326 -38.14571777 31.20118652 -37.51245117 30.66088867 C-32.06992138 26.03103475 -26.54904877 21.50144074 -21 17 C-19.14537289 15.4797282 -17.29120886 13.95889131 -15.4375 12.4375 C-10.3232901 8.2518066 -5.17033678 4.11608156 0 0 Z " fill="#FF1115" transform="translate(331,195)"/>
</svg>
