<?xml version="1.0" standalone="no"?>
<!DOCTYPE svg PUBLIC "-//W3C//DTD SVG 20010904//EN"
 "http://www.w3.org/TR/2001/REC-SVG-20010904/DTD/svg10.dtd">
<svg version="1.0" xmlns="http://www.w3.org/2000/svg"
 width="512.000000pt" height="512.000000pt" viewBox="0 0 512.000000 512.000000"
 preserveAspectRatio="xMidYMid meet">

<g transform="translate(0.000000,512.000000) scale(0.100000,-0.100000)"
fill="#000000" stroke="none">
<path d="M2450 4904 c-613 -40 -1131 -268 -1547 -683 -378 -375 -609 -854
-674 -1396 -15 -128 -15 -402 0 -530 85 -701 454 -1306 1036 -1692 644 -428
1486 -507 2203 -207 717 301 1239 938 1391 1699 59 300 59 630 0 930 -196 984
-1003 1736 -1995 1859 -129 16 -326 25 -414 20z m-820 -1196 c76 -73 253 -245
394 -381 224 -217 265 -252 326 -282 143 -68 278 -67 422 2 68 32 99 60 453
414 l381 379 221 -2 222 -3 -477 -488 c-262 -268 -499 -504 -527 -523 -69 -49
-167 -97 -250 -124 -107 -34 -303 -40 -415 -11 -98 24 -202 73 -277 128 -43
33 -1053 1010 -1053 1020 0 2 99 3 221 3 l221 0 138 -132z m1116 -1278 c100
-26 202 -74 279 -133 33 -25 278 -264 545 -531 l485 -486 -223 0 -224 0 -103
98 c-56 53 -232 223 -391 377 -316 306 -352 333 -486 361 -121 25 -243 0 -354
-73 -29 -18 -210 -198 -404 -398 l-353 -365 -236 0 -236 0 485 486 c267 267
512 505 545 529 99 71 216 123 326 144 86 17 260 12 345 -9z"/>
</g>
</svg>
