<svg version="1.1" id="Layer_1" xmlns="http://www.w3.org/2000/svg" xmlns:xlink="http://www.w3.org/1999/xlink" x="0px" y="0px"
	 width="100%" viewBox="0 0 500 500" enable-background="new 0 0 500 500" xml:space="preserve">
<path fill="#000001" opacity="1.000000" stroke="none" 
	d="
M315.000000,501.000000 
	C210.000031,501.000000 105.500053,501.000000 1.000056,501.000000 
	C1.000037,334.333405 1.000037,167.666794 1.000019,1.000146 
	C167.666565,1.000097 334.333130,1.000097 500.999756,1.000049 
	C500.999847,167.666519 500.999847,334.333038 500.999939,500.999786 
	C439.166656,501.000000 377.333344,501.000000 315.000000,501.000000 
M287.629395,44.615448 
	C279.632050,44.630524 271.629517,44.473316 263.638855,44.712067 
	C256.512421,44.924992 249.621796,46.604942 244.421219,51.785381 
	C202.162918,93.879921 159.991379,136.061661 117.882393,178.305511 
	C116.674644,179.517120 115.428276,182.252777 115.996429,183.332260 
	C117.035622,185.306747 119.257492,186.858780 121.306480,188.023361 
	C122.451591,188.674210 124.240730,188.214630 125.739723,188.216797 
	C166.730011,188.276138 207.720383,188.306412 248.710587,188.398849 
	C262.873444,188.430786 267.497620,193.252991 267.427490,207.470078 
	C267.375793,217.943268 267.436676,228.416962 267.432159,238.890442 
	C267.408539,293.880157 267.379242,348.869873 267.356293,403.859589 
	C267.355469,405.858917 267.043304,407.947876 267.516693,409.834320 
	C268.074738,412.058014 268.957703,415.512054 270.375916,415.889038 
	C272.320404,416.405884 275.001953,414.726379 277.169922,413.605682 
	C278.437439,412.950439 279.319672,411.550232 280.375702,410.485565 
	C294.449860,396.296295 308.522186,382.105225 322.598724,367.918304 
	C341.366943,349.002991 360.230560,330.181000 378.858856,311.128876 
	C385.458130,304.379517 388.868652,296.378845 388.644928,286.421936 
	C388.147308,264.270874 388.517670,242.100510 388.520447,219.938004 
	C388.527252,165.448593 388.527863,110.959175 388.526154,56.469761 
	C388.525970,50.366177 385.733185,46.697529 379.894348,45.448154 
	C377.472443,44.929924 374.956757,44.612995 372.483154,44.609436 
	C344.490692,44.569130 316.498138,44.607449 287.629395,44.615448 
M114.728424,338.499939 
	C114.758492,377.493530 114.760811,416.487152 114.836197,455.480652 
	C114.857727,466.617126 118.787743,470.273987 129.892029,470.242279 
	C155.386780,470.169434 180.881821,470.171112 206.376709,470.191742 
	C218.464645,470.201508 223.501251,465.804443 223.828598,453.614136 
	C224.171692,440.837830 223.787125,428.042877 223.779861,415.256042 
	C223.757324,375.594879 223.759598,335.933685 223.759506,296.272522 
	C223.759476,283.040924 218.909363,278.057098 205.823029,278.039764 
	C180.661896,278.006470 155.500656,278.010925 130.339493,278.026550 
	C119.487877,278.033295 114.857040,282.598602 114.792412,293.506683 
	C114.705513,308.170746 114.744095,322.835480 114.728424,338.499939 
z"/>
<path fill="#0664F9" opacity="1.000000" stroke="none" 
	d="
M288.067505,44.620075 
	C316.498138,44.607449 344.490692,44.569130 372.483154,44.609436 
	C374.956757,44.612995 377.472443,44.929924 379.894348,45.448154 
	C385.733185,46.697529 388.525970,50.366177 388.526154,56.469761 
	C388.527863,110.959175 388.527252,165.448593 388.520447,219.938004 
	C388.517670,242.100510 388.147308,264.270874 388.644928,286.421936 
	C388.868652,296.378845 385.458130,304.379517 378.858856,311.128876 
	C360.230560,330.181000 341.366943,349.002991 322.598724,367.918304 
	C308.522186,382.105225 294.449860,396.296295 280.375702,410.485565 
	C279.319672,411.550232 278.437439,412.950439 277.169922,413.605682 
	C275.001953,414.726379 272.320404,416.405884 270.375916,415.889038 
	C268.957703,415.512054 268.074738,412.058014 267.516693,409.834320 
	C267.043304,407.947876 267.355469,405.858917 267.356293,403.859589 
	C267.379242,348.869873 267.408539,293.880157 267.432159,238.890442 
	C267.436676,228.416962 267.375793,217.943268 267.427490,207.470078 
	C267.497620,193.252991 262.873444,188.430786 248.710587,188.398849 
	C207.720383,188.306412 166.730011,188.276138 125.739723,188.216797 
	C124.240730,188.214630 122.451591,188.674210 121.306480,188.023361 
	C119.257492,186.858780 117.035622,185.306747 115.996429,183.332260 
	C115.428276,182.252777 116.674644,179.517120 117.882393,178.305511 
	C159.991379,136.061661 202.162918,93.879921 244.421219,51.785381 
	C249.621796,46.604942 256.512421,44.924992 263.638855,44.712067 
	C271.629517,44.473316 279.632050,44.630524 288.067505,44.620075 
z"/>
<path fill="#0664F9" opacity="1.000000" stroke="none" 
	d="
M114.728622,337.999939 
	C114.744095,322.835480 114.705513,308.170746 114.792412,293.506683 
	C114.857040,282.598602 119.487877,278.033295 130.339493,278.026550 
	C155.500656,278.010925 180.661896,278.006470 205.823029,278.039764 
	C218.909363,278.057098 223.759476,283.040924 223.759506,296.272522 
	C223.759598,335.933685 223.757324,375.594879 223.779861,415.256042 
	C223.787125,428.042877 224.171692,440.837830 223.828598,453.614136 
	C223.501251,465.804443 218.464645,470.201508 206.376709,470.191742 
	C180.881821,470.171112 155.386780,470.169434 129.892029,470.242279 
	C118.787743,470.273987 114.857727,466.617126 114.836197,455.480652 
	C114.760811,416.487152 114.758492,377.493530 114.728622,337.999939 
z"/>
</svg>