<?xml version="1.0" encoding="UTF-8"?>
<svg version="1.1" xmlns="http://www.w3.org/2000/svg" width="500" height="500">
<path d="M0 0 C1.72677475 -0.00569504 1.72677475 -0.00569504 3.48843384 -0.01150513 C7.25323668 -0.01885081 11.01724946 0.00238237 14.78198242 0.02490234 C17.41607065 0.02728966 20.05016061 0.02819148 22.68424988 0.02767944 C28.18559396 0.02954345 33.68671531 0.04679106 39.18798828 0.07421875 C45.53313196 0.10573831 51.87803294 0.11621171 58.22324926 0.11474764 C64.35500849 0.11352433 70.4866767 0.12397508 76.61841393 0.14033127 C79.21670752 0.14668569 81.81500816 0.15063499 84.4133091 0.15211868 C88.04128693 0.15646125 91.66896233 0.17398106 95.296875 0.1953125 C96.36559341 0.19440613 97.43431183 0.19349976 98.53541565 0.19256592 C108.90337339 0.28157705 108.90337339 0.28157705 113.82495117 2.48583984 C118.32055617 7.62563473 118.39948124 11.89599221 118.34634399 18.38980103 C118.35399509 19.38284756 118.36164618 20.3758941 118.36952913 21.39903295 C118.39015652 24.72457107 118.38221147 28.04941645 118.37426758 31.375 C118.38296263 33.76033161 118.3933292 36.14565763 118.40524292 38.53097534 C118.42925927 44.33754336 118.43432572 50.14389604 118.42964239 55.95050772 C118.42607267 60.67377629 118.42958256 65.39698882 118.43809128 70.1202507 C118.43928166 70.79316123 118.44047203 71.46607176 118.44169848 72.15937351 C118.44412208 73.52656354 118.44655035 74.89375356 118.44898324 76.26094358 C118.47073105 89.08025075 118.46641197 101.89945268 118.45421354 114.71876578 C118.44388671 126.42775658 118.46635579 138.13641402 118.50440998 149.8453389 C118.54322923 161.88251037 118.55966719 173.91952442 118.55216348 185.95675886 C118.54834734 192.70883928 118.55323575 199.46063639 118.58159256 206.21266556 C118.60679767 212.56745381 118.60281602 218.92157735 118.57677078 225.27635574 C118.57204985 227.60308052 118.57747068 229.9298524 118.59401703 232.25652313 C118.69248312 247.18414055 118.31573776 258.55250861 107.33007812 269.83642578 C106.6519971 270.54330347 106.6519971 270.54330347 105.96021748 271.26446152 C104.2640456 273.02074936 102.54444969 274.75238398 100.82495117 276.48583984 C99.26298 278.08225882 97.70170802 279.67936205 96.14096069 281.27697754 C90.3675049 287.16926978 84.55832133 293.02562745 78.74291992 298.87646484 C78.21881476 299.40386733 77.69470959 299.93126982 77.15472245 300.4746542 C72.20298892 305.45706927 67.24924016 310.43747285 62.29069042 315.41310501 C55.98234453 321.74346002 49.68436724 328.08376512 43.39965075 334.43758225 C38.95633315 338.92807914 34.50163554 343.40708248 30.0383051 347.87768722 C27.38032546 350.5406184 24.72763057 353.20835662 22.08711815 355.88861847 C19.15302057 358.86632795 16.19577455 361.81994483 13.23583984 364.77197266 C12.36767136 365.66014175 11.49950287 366.54831085 10.60502625 367.46339417 C9.79650208 368.26222519 8.98797791 369.06105621 8.154953 369.88409424 C7.45945941 370.58381977 6.76396582 371.2835453 6.04739666 372.00447464 C3.12986325 373.94914887 1.26275232 373.90751027 -2.17504883 373.48583984 C-5.01127937 370.6496093 -4.43591776 368.78231102 -4.45352173 364.80593872 C-4.45931413 364.11092502 -4.46510653 363.41591133 -4.47107446 362.69983661 C-4.488152 360.35778749 -4.49095804 358.0159346 -4.49389648 355.67382812 C-4.50319237 353.99797073 -4.51336053 352.32211798 -4.52433777 350.64627075 C-4.5517681 346.07387981 -4.56683843 341.50151997 -4.5797658 336.92906809 C-4.59542738 332.11453171 -4.62223412 327.30005733 -4.64779663 322.48556519 C-4.69473029 313.32039124 -4.73136417 304.15520515 -4.7644695 294.989972 C-4.80215 284.70793692 -4.85191064 274.42597214 -4.90245366 264.14399362 C-4.97699752 248.86854937 -5.04702897 233.59307963 -5.1047256 218.31756186 C-5.11486354 215.72960749 -5.12632464 213.14166126 -5.1378727 210.55371284 C-5.17264804 202.08660262 -5.1717635 193.62124105 -5.1137085 185.15423584 C-5.10032471 182.67959489 -5.08757587 180.20495136 -5.07495952 177.73030639 C-5.05981126 175.43767416 -5.03358382 173.14535241 -5.00686073 170.85283089 C-4.44584145 159.06020875 -4.44584145 159.06020875 -9.55004883 149.04833984 C-13.65123912 146.60715515 -17.01519913 146.36057626 -21.74754333 146.35453796 C-22.88172699 146.35052979 -24.01591064 146.34652161 -25.1844635 146.34239197 C-26.42457687 146.34292068 -27.66469025 146.3434494 -28.94238281 146.34399414 C-30.95213184 146.3386609 -32.96188086 146.33332169 -34.97162926 146.32775748 C-37.12995074 146.32256433 -39.28826613 146.31964821 -41.44659233 146.31717491 C-45.94718627 146.31125735 -50.44770145 146.29471065 -54.94825745 146.27583313 C-56.48987098 146.26949612 -58.03148456 146.26317049 -59.57309818 146.25685596 C-60.3450273 146.25369015 -61.11695643 146.25052434 -61.91227734 146.2472626 C-72.38795623 146.20520118 -82.86359771 146.17220122 -93.33935547 146.15991211 C-100.40894781 146.15153365 -107.47834436 146.1290536 -114.54783875 146.09055644 C-118.28770821 146.07079311 -122.02728498 146.05839213 -125.76721001 146.06339073 C-129.93785311 146.06889748 -134.10776604 146.04364464 -138.27832031 146.01586914 C-139.51640945 146.02247055 -140.7544986 146.02907196 -142.03010559 146.03587341 C-143.16710907 146.02340576 -144.30411255 146.01093811 -145.47557068 145.99809265 C-146.95416895 145.99451012 -146.95416895 145.99451012 -148.4626379 145.99085522 C-152.02452949 145.32767768 -153.70471061 144.11370297 -156.17504883 141.48583984 C-156.79570389 139.084939 -156.79570389 139.084939 -156.17504883 136.48583984 C-154.59307189 134.40649648 -153.09198007 132.71437664 -151.24456787 130.9002533 C-150.71400575 130.35977452 -150.18344363 129.81929575 -149.63680387 129.26243883 C-147.85241501 127.45104163 -146.05060367 125.6580532 -144.24829102 123.86450195 C-142.96626369 122.57078988 -141.68528259 121.27604032 -140.40527344 119.98033142 C-136.92072522 116.46010795 -133.42022184 112.95617017 -129.91558743 109.45595622 C-126.98913334 106.53069074 -124.07002886 103.59814464 -121.15074277 100.66572863 C-114.25809096 93.74271738 -107.35198412 86.83332982 -100.43774414 79.93188477 C-93.31530077 72.8220994 -86.21706238 65.68878921 -79.13024783 58.54350466 C-73.04007733 52.40493406 -66.9344466 46.28204087 -60.81646085 40.17119223 C-57.16506003 36.52366409 -53.51985446 32.87045181 -49.88967133 29.20179558 C-46.46992287 25.74706933 -43.03119196 22.31240637 -39.57733154 18.8917942 C-38.31759682 17.63781147 -37.06455255 16.37706317 -35.81906891 15.10892487 C-24.91977525 4.02551787 -15.86420765 -0.16842859 0 0 Z " fill="#0563FA" transform="translate(270.175048828125,42.51416015625)"/>
<path d="M0 0 C0.83614838 -0.0049649 1.67229675 -0.00992981 2.53378296 -0.01504517 C5.30353619 -0.02966412 8.07323208 -0.03646943 10.84301758 -0.04199219 C12.77012636 -0.04774521 14.69723512 -0.05350292 16.62434387 -0.05926514 C20.66867337 -0.06977529 24.71298299 -0.07561742 28.75732422 -0.07910156 C33.92775194 -0.08457699 39.09791508 -0.10858462 44.26826 -0.13707352 C48.25151828 -0.15574473 52.23471352 -0.16090795 56.21801186 -0.16243744 C58.12330886 -0.16545592 60.02860496 -0.17345717 61.93385887 -0.18662262 C64.60714886 -0.20377196 67.27980157 -0.20178096 69.953125 -0.1953125 C70.73316391 -0.20452728 71.51320282 -0.21374207 72.31687927 -0.22323608 C78.24866729 -0.17851517 83.72181584 0.55353923 88.3818264 4.50106812 C92.79991611 9.69113797 92.57193763 15.47308159 92.60205078 22.0078125 C92.62604352 23.18631145 92.65003626 24.36481041 92.67475605 25.57902145 C92.74415091 29.43989201 92.77517851 33.29973504 92.80004883 37.16113281 C92.82789078 39.77787294 92.85575353 42.39461285 92.88363647 45.01135254 C92.95500085 52.78827386 92.96593082 60.5649763 92.9673059 68.3421793 C92.9680282 70.64815309 92.97018352 72.95412131 92.97280312 75.26009369 C92.98195677 83.33420681 92.98614864 91.40830373 92.98535156 99.48242188 C92.98474569 106.97131041 92.99542185 114.46012813 93.01109523 121.94899869 C93.02417372 128.43198011 93.0295357 134.91493826 93.02889615 141.39793277 C93.0286423 145.24813545 93.03143422 149.09827411 93.0420742 152.94846344 C93.05176652 156.55044774 93.05182676 160.15230657 93.04455757 163.75429535 C93.04301947 165.69574087 93.05134045 167.63718645 93.05999756 169.57861328 C93.02667376 178.83742777 92.54206372 185.41911792 85.80004883 192.16113281 C81.37809303 194.5602716 76.95693399 194.45069341 72.05004883 194.43579102 C71.17952881 194.44090195 70.30900879 194.44601288 69.41210938 194.45127869 C66.54135215 194.46515212 63.67083555 194.46421983 60.80004883 194.46191406 C58.80135001 194.46580176 56.80265201 194.47013658 54.80395508 194.47489929 C50.61772989 194.48235632 46.43158906 194.48207362 42.24536133 194.47680664 C36.88186474 194.47100772 31.518713 194.48795581 26.15527344 194.51115131 C22.02886946 194.52588368 17.90254867 194.52676111 13.77612305 194.52364159 C11.79857703 194.52415488 9.82102636 194.52939419 7.84350586 194.53945351 C5.07879202 194.5517931 2.31475192 194.54504149 -0.44995117 194.53344727 C-1.26568604 194.541091 -2.0814209 194.54873474 -2.921875 194.55661011 C-7.52016145 194.51399826 -10.43553476 194.08456554 -14.19995117 191.16113281 C-18.06706175 186.74157787 -18.32678311 183.06668334 -18.34039307 177.31768799 C-18.34336419 176.61769267 -18.34633531 175.91769735 -18.34939647 175.19649005 C-18.35808494 172.84517404 -18.35959184 170.49390893 -18.36108398 168.14257812 C-18.36571209 166.4589324 -18.37073675 164.77528773 -18.37612915 163.09164429 C-18.38925679 158.51298595 -18.39569895 153.93434228 -18.40013981 149.35566807 C-18.40307026 146.49503189 -18.40717504 143.63439972 -18.41164398 140.77376556 C-18.42532056 131.82339282 -18.43498614 122.87302923 -18.43884587 113.92264676 C-18.44332562 103.59117659 -18.46086898 93.25983878 -18.48984647 82.92840886 C-18.51146687 74.94273967 -18.52155036 66.95710771 -18.52288699 58.97140956 C-18.52393486 54.20197002 -18.52983878 49.43265488 -18.5477066 44.66324615 C-18.56419321 40.17511623 -18.56633993 35.68720414 -18.5575676 31.19905472 C-18.55679751 29.55395296 -18.56113623 27.90883946 -18.57102585 26.26376724 C-18.58375995 24.01309072 -18.57786118 21.76318399 -18.56744385 19.51251221 C-18.56891041 18.25447407 -18.57037697 16.99643593 -18.57188797 15.70027542 C-17.94972307 9.78010213 -15.92604371 5.001083 -11.19995117 1.16113281 C-7.43750057 -0.09301739 -3.91996563 0.00554567 0 0 Z " fill="#0564FB" transform="translate(131.199951171875,275.8388671875)"/>
<path d="M0 0 C0.495 1.485 0.495 1.485 1 3 C0.38125 3.598125 -0.2375 4.19625 -0.875 4.8125 C-3.13676954 7.00811144 -3.13676954 7.00811144 -5 10 C-5.66 10 -6.32 10 -7 10 C-7.33 10.99 -7.66 11.98 -8 13 C-9 14 -10 15 -11 16 C-11.433125 16.804375 -11.86625 17.60875 -12.3125 18.4375 C-14.412357 21.62617174 -16.71295025 23.11169483 -20 25 C-20.66 25 -21.32 25 -22 25 C-22.103125 25.598125 -22.20625 26.19625 -22.3125 26.8125 C-23.10636936 29.33844795 -23.95572409 30.34885407 -26 32 C-27.485 32.495 -27.485 32.495 -29 33 C-30.48332461 34.53441771 -30.48332461 34.53441771 -31.875 36.375 C-33.8151327 38.74949076 -35.06533799 40.03860881 -37.75 41.625 C-40.22539898 42.82054774 -40.22539898 42.82054774 -40.9375 45.5 C-42.42657096 49.00369638 -44.62834872 49.45465983 -48 51 C-48.66 51.99 -49.32 52.98 -50 54 C-50.66 54 -51.32 54 -52 54 C-52.33 56.31 -52.66 58.62 -53 61 C16.3 61.495 16.3 61.495 87 62 C87 62.66 87 63.32 87 64 C88.65 64.33 90.3 64.66 92 65 C92 65.66 92 66.32 92 67 C92.99 67.33 93.98 67.66 95 68 C98.88870128 73.40693976 99.57453628 77.45317626 99.48101807 84.00401306 C99.48443577 84.88795779 99.48785347 85.77190252 99.49137473 86.68263346 C99.49794182 89.63242515 99.47599687 92.58129858 99.45410156 95.53100586 C99.45297283 97.65023782 99.45360744 99.76947134 99.45587158 101.88870239 C99.45701865 107.63410977 99.43351013 113.37918273 99.40557575 119.12451243 C99.38056113 125.13162078 99.37822004 131.13873689 99.37347412 137.14588928 C99.36104457 148.51779716 99.32822307 159.88955111 99.28807616 171.26139122 C99.24335796 184.20929033 99.22137126 197.15719681 99.20129442 210.10515392 C99.15949055 236.73685459 99.08913873 263.36841867 99 290 C99.66 289.67 100.32 289.34 101 289 C102.99960012 288.960008 105.00047242 288.95653201 107 289 C105.875 291 105.875 291 104 293 C100.9375 293.375 100.9375 293.375 98 293 C95.16376946 290.16376946 95.73913107 288.29647118 95.7215271 284.32009888 C95.7157347 283.62508518 95.7099423 282.93007149 95.70397437 282.21399677 C95.68689682 279.87194765 95.68409079 277.53009475 95.68115234 275.18798828 C95.67185646 273.51213089 95.6616883 271.83627813 95.65071106 270.16043091 C95.62328073 265.58803997 95.6082104 261.01568013 95.59528303 256.44322824 C95.57962145 251.62869187 95.55281471 246.81421748 95.5272522 241.99972534 C95.48031854 232.8345514 95.44368466 223.66936531 95.41057932 214.50413215 C95.37289883 204.22209707 95.32313819 193.9401323 95.27259517 183.65815377 C95.19805131 168.38270953 95.12801985 153.10723978 95.07032323 137.83172202 C95.06018529 135.24376765 95.04872418 132.65582142 95.03717613 130.067873 C95.00240079 121.60076277 95.00328533 113.13540121 95.06134033 104.668396 C95.07472411 102.19375504 95.08747296 99.71911151 95.10008931 97.24446654 C95.11523757 94.95183432 95.14146501 92.65951257 95.1681881 90.36699104 C95.72920738 78.57436891 95.72920738 78.57436891 90.625 68.5625 C86.52380971 66.1213153 83.1598497 65.87473642 78.42750549 65.86869812 C77.29332184 65.86468994 76.15913818 65.86068176 74.99058533 65.85655212 C73.75047195 65.85708084 72.51035858 65.85760956 71.23266602 65.8581543 C69.22291699 65.85282106 67.21316797 65.84748185 65.20341957 65.84191763 C63.04509809 65.83672449 60.88678269 65.83380837 58.7284565 65.83133507 C54.22786256 65.82541751 49.72734738 65.80887081 45.22679138 65.78999329 C43.68517785 65.78365628 42.14356427 65.77733065 40.60195065 65.77101612 C39.83002152 65.76785031 39.0580924 65.7646845 38.26277149 65.76142275 C27.7870926 65.71936134 17.31145111 65.68636137 6.83569336 65.67407227 C-0.23389898 65.6656938 -7.30329553 65.64321375 -14.37278992 65.6047166 C-18.11265938 65.58495326 -21.85223615 65.57255229 -25.59216118 65.57755089 C-29.76280428 65.58305764 -33.93271722 65.5578048 -38.10327148 65.5300293 C-39.34136063 65.53663071 -40.57944977 65.54323212 -41.85505676 65.55003357 C-42.99206024 65.53756592 -44.12906372 65.52509827 -45.30052185 65.51225281 C-46.28625403 65.50986445 -47.27198622 65.5074761 -48.28758907 65.50501537 C-51.77478813 64.8557446 -53.4776162 63.44632959 -56 61 C-56.63378906 58.60676575 -56.63378906 58.60676575 -56 56 C-54.34740903 53.88002023 -52.77618616 52.14275591 -50.859375 50.29174805 C-50.31317505 49.74481796 -49.7669751 49.19788788 -49.20422363 48.63438416 C-47.39774858 46.83138967 -45.57421766 45.04674493 -43.75 43.26171875 C-42.49337964 42.01442477 -41.23785944 40.76602151 -39.98339844 39.51655579 C-36.68002483 36.23226535 -33.36191199 32.96326605 -30.04052734 29.69720459 C-26.65342162 26.36126208 -23.2804405 23.01110572 -19.90625 19.66210938 C-13.28459673 13.09406714 -6.6472888 6.54208904 0 0 Z " fill="#216DDB" transform="translate(170,123)"/>
<path d="M0 0 C0.83614838 -0.0049649 1.67229675 -0.00992981 2.53378296 -0.01504517 C5.30353619 -0.02966412 8.07323208 -0.03646943 10.84301758 -0.04199219 C12.77012636 -0.04774521 14.69723512 -0.05350292 16.62434387 -0.05926514 C20.66867337 -0.06977529 24.71298299 -0.07561742 28.75732422 -0.07910156 C33.92775194 -0.08457699 39.09791508 -0.10858462 44.26826 -0.13707352 C48.25151828 -0.15574473 52.23471352 -0.16090795 56.21801186 -0.16243744 C58.12330886 -0.16545592 60.02860496 -0.17345717 61.93385887 -0.18662262 C64.60714886 -0.20377196 67.27980157 -0.20178096 69.953125 -0.1953125 C70.73316391 -0.20452728 71.51320282 -0.21374207 72.31687927 -0.22323608 C78.24866729 -0.17851517 83.72181584 0.55353923 88.3818264 4.50106812 C92.79991611 9.69113797 92.57193763 15.47308159 92.60205078 22.0078125 C92.62604352 23.18631145 92.65003626 24.36481041 92.67475605 25.57902145 C92.74415091 29.43989201 92.77517851 33.29973504 92.80004883 37.16113281 C92.82789078 39.77787294 92.85575353 42.39461285 92.88363647 45.01135254 C92.95500085 52.78827386 92.96593082 60.5649763 92.9673059 68.3421793 C92.9680282 70.64815309 92.97018352 72.95412131 92.97280312 75.26009369 C92.98195677 83.33420681 92.98614864 91.40830373 92.98535156 99.48242188 C92.98474569 106.97131041 92.99542185 114.46012813 93.01109523 121.94899869 C93.02417372 128.43198011 93.0295357 134.91493826 93.02889615 141.39793277 C93.0286423 145.24813545 93.03143422 149.09827411 93.0420742 152.94846344 C93.05176652 156.55044774 93.05182676 160.15230657 93.04455757 163.75429535 C93.04301947 165.69574087 93.05134045 167.63718645 93.05999756 169.57861328 C93.02667376 178.83742777 92.54206372 185.41911792 85.80004883 192.16113281 C81.37809303 194.5602716 76.95693399 194.45069341 72.05004883 194.43579102 C71.17952881 194.44090195 70.30900879 194.44601288 69.41210938 194.45127869 C66.54135215 194.46515212 63.67083555 194.46421983 60.80004883 194.46191406 C58.80135001 194.46580176 56.80265201 194.47013658 54.80395508 194.47489929 C50.61772989 194.48235632 46.43158906 194.48207362 42.24536133 194.47680664 C36.88186474 194.47100772 31.518713 194.48795581 26.15527344 194.51115131 C22.02886946 194.52588368 17.90254867 194.52676111 13.77612305 194.52364159 C11.79857703 194.52415488 9.82102636 194.52939419 7.84350586 194.53945351 C5.07879202 194.5517931 2.31475192 194.54504149 -0.44995117 194.53344727 C-1.26568604 194.541091 -2.0814209 194.54873474 -2.921875 194.55661011 C-7.52016145 194.51399826 -10.43553476 194.08456554 -14.19995117 191.16113281 C-18.08330342 186.72301596 -18.32441006 183.04317997 -18.32020569 177.27058411 C-18.32106011 176.56564983 -18.32191454 175.86071555 -18.32279485 175.13441962 C-18.32444506 172.76675213 -18.31893578 170.39915513 -18.31347656 168.03149414 C-18.31319457 166.33649192 -18.31335267 164.64148958 -18.31391907 162.94648743 C-18.31420655 158.33936334 -18.30831765 153.73226516 -18.30134511 149.1251471 C-18.2951035 144.31249259 -18.29450713 139.49983751 -18.2933197 134.68717957 C-18.29020877 125.57120375 -18.28199858 116.45523989 -18.27197021 107.33926934 C-18.26080169 96.9621316 -18.25529676 86.5849933 -18.25027478 76.20785105 C-18.23981579 54.85893829 -18.22222094 33.5100363 -18.19995117 12.16113281 C-17.86995117 12.16113281 -17.53995117 12.16113281 -17.19995117 12.16113281 C-17.19571923 13.03965566 -17.19148729 13.9181785 -17.18712711 14.82332325 C-17.08391338 36.1797763 -16.97528962 57.53619583 -16.86061192 78.89259052 C-16.80528619 89.2202929 -16.75180524 99.54799874 -16.70263672 109.87573242 C-16.65978694 118.8752538 -16.61350691 127.87474981 -16.56307262 136.87423199 C-16.53647811 141.64129317 -16.51162516 146.40834933 -16.49087715 151.17543983 C-16.4713074 155.65937798 -16.44716255 160.14326788 -16.4194603 164.62716293 C-16.41009167 166.27554003 -16.40241571 167.92392772 -16.39653206 169.57232094 C-16.3882677 171.81778309 -16.37399009 174.06312823 -16.35816956 176.30854797 C-16.351717 177.5667954 -16.34526445 178.82504282 -16.33861637 180.12141895 C-16.33630703 183.20651077 -16.33630703 183.20651077 -15.19995117 186.16113281 C-13.54790661 186.86325175 -11.88071348 187.53084695 -10.19995117 188.16113281 C-9.86995117 188.82113281 -9.53995117 189.48113281 -9.19995117 190.16113281 C2.61312532 190.23056747 14.42615347 190.28391084 26.23939228 190.31656933 C31.72444669 190.3322418 37.20936174 190.353509 42.69433594 190.38745117 C47.98518943 190.41998811 53.27590868 190.4379739 58.56685448 190.44576454 C60.58793439 190.45131824 62.60900675 190.46216292 64.63002968 190.47832298 C67.45550178 190.50002191 70.28041535 190.5031029 73.10595703 190.50170898 C73.94608841 190.51249481 74.78621979 190.52328064 75.65180969 190.53439331 C79.90937444 190.68801673 79.90937444 190.68801673 83.41351604 188.63858509 C83.87107186 188.15102584 84.32862768 187.66346659 84.80004883 187.16113281 C85.46004883 187.16113281 86.12004883 187.16113281 86.80004883 187.16113281 C87.96247347 183.67385888 87.93184454 180.94749449 87.94049072 177.26626587 C87.94346184 176.56077587 87.94643297 175.85528586 87.94949412 175.12841737 C87.95818281 172.75861396 87.9596895 170.38886106 87.96118164 168.01904297 C87.96580965 166.32230013 87.97083429 164.62555833 87.97622681 162.92881775 C87.98935342 158.31517085 87.99579614 153.7015385 88.00023746 149.08787584 C88.00316743 146.20648407 88.00727207 143.32509628 88.01174164 140.44370651 C88.02541652 131.43140132 88.03508354 122.41910523 88.03894353 113.40679038 C88.04342607 102.99775997 88.06098311 92.58886076 88.08994412 82.17987025 C88.11154557 74.13733259 88.12164697 66.09483189 88.12298465 58.05226552 C88.12403367 53.24711973 88.12996224 48.44209726 88.14780426 43.63698196 C88.16425865 39.11766919 88.16645329 34.59857281 88.15766525 30.0792408 C88.1568935 28.42039855 88.16125583 26.76154479 88.1711235 25.1027317 C88.18380452 22.83821799 88.17798775 20.57447518 88.1675415 18.30996704 C88.16900806 17.04271097 88.17047462 15.7754549 88.17198563 14.46979713 C87.77012848 10.89496831 86.97626115 8.99843968 84.80004883 6.16113281 C82.7147125 5.28290969 82.7147125 5.28290969 80.80004883 5.16113281 C80.80004883 4.17113281 80.80004883 3.18113281 80.80004883 2.16113281 C69.57749364 2.26879874 58.35500077 2.38146513 47.13255978 2.50047207 C41.92123908 2.55557864 36.70991266 2.60897863 31.49853516 2.65844727 C26.46698354 2.70627223 21.43549726 2.75862082 16.40402412 2.81407356 C14.48676753 2.8344152 12.56949307 2.85314139 10.65220451 2.87020683 C7.9617558 2.89443307 5.27142856 2.92446149 2.58105469 2.95581055 C1.79270737 2.96156601 1.00436005 2.96732147 0.19212341 2.97325134 C-4.36325876 3.03337615 -8.70363395 3.41890303 -13.19995117 4.16113281 C-9.84602802 -0.86975191 -5.54105163 0.00783906 0 0 Z " fill="#1367E6" transform="translate(131.199951171875,275.8388671875)"/>
<path d="M0 0 C1.98 0.99 1.98 0.99 4 2 C4 72.95 4 143.9 4 217 C4.66 216.67 5.32 216.34 6 216 C7.99960012 215.960008 10.00047242 215.95653201 12 216 C10.875 218 10.875 218 9 220 C5.9375 220.375 5.9375 220.375 3 220 C0.17040843 217.17040843 0.73920059 215.32764629 0.7215271 211.36047363 C0.7157347 210.66969333 0.7099423 209.97891303 0.70397437 209.26719999 C0.68689605 206.93915447 0.68409064 204.61130635 0.68115234 202.28320312 C0.67185599 200.61708081 0.66168776 198.95096317 0.65071106 197.28485107 C0.62327257 192.73684994 0.60820579 188.1888801 0.59528303 183.64081764 C0.57960986 178.84510437 0.5528024 174.04945316 0.5272522 169.25378418 C0.48564448 161.15618765 0.45121416 153.05858743 0.421875 144.9609375 C0.38106323 133.69707947 0.32830504 122.43330376 0.27259517 111.16951084 C0.09079976 74.11280257 -0.02744539 37.05719228 0 0 Z " fill="#0549AC" transform="translate(265,196)"/>
<path d="M0 0 C0.33 0 0.66 0 1 0 C1.00423194 0.87852284 1.00846388 1.75704569 1.01282406 2.66219044 C1.11603779 24.01864349 1.22466156 45.37506302 1.33933926 66.73145771 C1.39466499 77.05916009 1.44814594 87.38686593 1.49731445 97.71459961 C1.54016423 106.71412099 1.58644426 115.71361699 1.63687855 124.71309918 C1.66347307 129.48016036 1.68832602 134.24721652 1.70907402 139.01430702 C1.72864378 143.49824517 1.75278862 147.98213506 1.78049088 152.46603012 C1.7898595 154.11440722 1.79753547 155.76279491 1.80341911 157.41118813 C1.81168348 159.65665028 1.82596108 161.90199541 1.84178162 164.14741516 C1.84823417 165.40566258 1.85468672 166.66391001 1.8613348 167.96028614 C2.03483347 171.76359308 2.69515743 173.59091571 4.97624207 176.65202332 C9.15900286 179.8999767 12.22623915 179.67294561 17.38012695 179.56762695 C18.31719986 179.56835709 19.25427277 179.56908722 20.21974182 179.56983948 C23.30984859 179.56636255 26.39843858 179.52749563 29.48828125 179.48828125 C31.63347042 179.47895352 33.77867026 179.47183722 35.9238739 179.46684265 C41.5646414 179.44776987 47.20476317 179.39866589 52.84527588 179.34332275 C58.60314194 179.29213677 64.36111253 179.26932995 70.11914062 179.24414062 C81.41304382 179.19054806 92.70646817 179.10523125 104 179 C100.15267085 182.84732915 95.5771878 182.1542048 90.47705078 182.16113281 C89.17170883 182.16858017 89.17170883 182.16858017 87.83999634 182.17617798 C84.95842704 182.19079445 82.07691279 182.19760048 79.1953125 182.203125 C77.19375609 182.20887653 75.19219969 182.21463427 73.19064331 182.22039795 C68.99249006 182.23090623 64.79435596 182.23675015 60.59619141 182.24023438 C55.21696652 182.2457211 49.8379945 182.26975373 44.45884895 182.29820633 C40.32387553 182.31682941 36.18896308 182.32203812 32.05395126 182.32357025 C30.07081595 182.32659766 28.08768174 182.33462913 26.10458755 182.34775543 C23.33010859 182.36481019 20.5562484 182.36293715 17.78173828 182.35644531 C16.96286133 182.3656601 16.14398438 182.37487488 15.30029297 182.3843689 C10.69196492 182.35059147 7.77146847 181.93354435 4 179 C0.11664775 174.56188314 -0.12445888 170.88204716 -0.12025452 165.10945129 C-0.12110894 164.40451701 -0.12196337 163.69958273 -0.12284368 162.97328681 C-0.12449389 160.60561932 -0.11898461 158.23802231 -0.11352539 155.87036133 C-0.11324339 154.17535911 -0.1134015 152.48035676 -0.1139679 150.78535461 C-0.11425538 146.17823052 -0.10836648 141.57113235 -0.10139394 136.96401429 C-0.09515233 132.15135977 -0.09455596 127.33870469 -0.09336853 122.52604675 C-0.0902576 113.41007093 -0.08204741 104.29410707 -0.07201904 95.17813653 C-0.06085052 84.80099879 -0.05534559 74.42386049 -0.05032361 64.04671824 C-0.03986461 42.69780548 -0.02226976 21.34890349 0 0 Z " fill="#0A357C" transform="translate(113,288)"/>
<path d="M0 0 C1.72677475 -0.00569504 1.72677475 -0.00569504 3.48843384 -0.01150513 C7.25323668 -0.01885081 11.01724946 0.00238237 14.78198242 0.02490234 C17.41607065 0.02728966 20.05016061 0.02819148 22.68424988 0.02767944 C28.18559396 0.02954345 33.68671531 0.04679106 39.18798828 0.07421875 C45.53313196 0.10573831 51.87803294 0.11621171 58.22324926 0.11474764 C64.35500849 0.11352433 70.4866767 0.12397508 76.61841393 0.14033127 C79.21670752 0.14668569 81.81500816 0.15063499 84.4133091 0.15211868 C88.04128693 0.15646125 91.66896233 0.17398106 95.296875 0.1953125 C96.36559341 0.19440613 97.43431183 0.19349976 98.53541565 0.19256592 C103.9912985 0.23940584 108.71213897 0.49460657 113.82495117 2.48583984 C114.15495117 3.14583984 114.48495117 3.80583984 114.82495117 4.48583984 C113.75015503 4.32416321 112.67535889 4.16248657 111.56799316 3.99591064 C106.02826573 3.30846921 100.51167724 3.33042436 94.9362793 3.32470703 C93.76777939 3.31974213 92.59927948 3.31477722 91.39537048 3.30966187 C87.54897463 3.29511507 83.70261996 3.28825232 79.85620117 3.28271484 C77.85234017 3.27841491 75.84847916 3.27411442 73.84461832 3.26974034 C68.26730851 3.2579606 62.69000857 3.25040245 57.11268759 3.24694514 C49.92078085 3.24246087 42.72906383 3.22488262 35.53721476 3.19594455 C29.95990062 3.17428807 24.38263974 3.16423889 18.80528402 3.16290402 C15.48176326 3.16185957 12.15846161 3.15456483 8.8349762 3.13808441 C5.12771228 3.12100615 1.42091048 3.12290837 -2.28637695 3.12939453 C-3.92154015 3.11557236 -3.92154015 3.11557236 -5.58973694 3.10147095 C-11.8140977 3.13553754 -16.55574466 3.71878731 -22.17504883 6.48583984 C-24.41912137 9.51785909 -24.41912137 9.51785909 -26.17504883 12.48583984 C-28.42504883 13.36083984 -28.42504883 13.36083984 -30.17504883 13.48583984 C-30.26786133 14.41396484 -30.26786133 14.41396484 -30.36254883 15.36083984 C-30.63067383 16.06208984 -30.89879883 16.76333984 -31.17504883 17.48583984 C-32.84171549 18.15250651 -34.50838216 18.81917318 -36.17504883 19.48583984 C-36.92748438 21.41221996 -36.92748438 21.41221996 -37.17504883 23.48583984 C-40.3361665 28.22751635 -44.79078137 30.21197714 -50.17504883 31.48583984 C-45.19019216 25.53486275 -39.95001806 19.87448409 -34.55004883 14.29833984 C-33.72375977 13.40953125 -32.8974707 12.52072266 -32.04614258 11.60498047 C-31.20954102 10.74710938 -30.37293945 9.88923828 -29.51098633 9.00537109 C-28.77412598 8.23298096 -28.03726563 7.46059082 -27.27807617 6.66479492 C-19.08418412 0.91101943 -9.75719325 -0.10359108 0 0 Z " fill="#194B9F" transform="translate(270.175048828125,42.51416015625)"/>
<path d="M0 0 C0.33 0 0.66 0 1 0 C1.15982034 31.5338239 1.28363556 63.06753218 1.35745731 94.60166668 C1.36621185 98.32778822 1.37527215 102.05390895 1.38452148 105.7800293 C1.38635766 106.52180696 1.38819383 107.26358462 1.39008565 108.0278404 C1.42051311 120.02564066 1.47568737 132.02320522 1.54006957 144.02086584 C1.60561922 156.33916942 1.64443018 168.65734989 1.65861946 180.97582072 C1.66820611 188.57206552 1.69844077 196.16764403 1.75541527 203.76368364 C1.79692561 209.59647009 1.80116398 215.42891789 1.79175377 221.26185608 C1.79367534 223.64869975 1.80754381 226.03556927 1.83443832 228.42226219 C2.08125402 251.46055583 2.08125402 251.46055583 -6 260 C-6.45852859 260.54654991 -6.91705719 261.09309982 -7.38948059 261.65621185 C-8.5431996 262.98410429 -9.79837126 264.22194326 -11.05859375 265.44921875 C-11.93837891 266.31611328 -12.81816406 267.18300781 -13.72460938 268.07617188 C-14.61986328 268.93791016 -15.51511719 269.79964844 -16.4375 270.6875 C-17.35982422 271.59177734 -18.28214844 272.49605469 -19.23242188 273.42773438 C-21.47930066 275.62804572 -23.73500967 277.81836388 -26 280 C-26 276.36693069 -24.92067933 275.02876356 -23 272 C-22.31903578 270.67391178 -21.64669414 269.34313399 -21 268 C-20.01 268 -19.02 268 -18 268 C-17.67 267.01 -17.34 266.02 -17 265 C-15.02043058 263.30911778 -13.02054804 261.64169528 -11 260 C-10.67 259.34 -10.34 258.68 -10 258 C-9.01 258 -8.02 258 -7 258 C-7.495 256.02 -7.495 256.02 -8 254 C-7.34 254 -6.68 254 -6 254 C-6 253.34 -6 252.68 -6 252 C-5.01 252 -4.02 252 -3 252 C-3 251.01 -3 250.02 -3 249 C-2.34 249 -1.68 249 -1 249 C-0.505 125.745 -0.505 125.745 0 0 Z " fill="#1468E7" transform="translate(385,51)"/>
<path d="M0 0 C0.495 1.485 0.495 1.485 1 3 C0.38125 3.598125 -0.2375 4.19625 -0.875 4.8125 C-3.13676954 7.00811144 -3.13676954 7.00811144 -5 10 C-5.66 10 -6.32 10 -7 10 C-7.33 10.99 -7.66 11.98 -8 13 C-9 14 -10 15 -11 16 C-11.433125 16.804375 -11.86625 17.60875 -12.3125 18.4375 C-14.412357 21.62617174 -16.71295025 23.11169483 -20 25 C-20.66 25 -21.32 25 -22 25 C-22.103125 25.598125 -22.20625 26.19625 -22.3125 26.8125 C-23.10636936 29.33844795 -23.95572409 30.34885407 -26 32 C-27.485 32.495 -27.485 32.495 -29 33 C-30.48332461 34.53441771 -30.48332461 34.53441771 -31.875 36.375 C-33.8151327 38.74949076 -35.06533799 40.03860881 -37.75 41.625 C-40.22539898 42.82054774 -40.22539898 42.82054774 -40.9375 45.5 C-42.42657096 49.00369638 -44.62834872 49.45465983 -48 51 C-48.66 51.99 -49.32 52.98 -50 54 C-50.66 54 -51.32 54 -52 54 C-52.33 56.31 -52.66 58.62 -53 61 C-52.01 61 -51.02 61 -50 61 C-50 61.66 -50 62.32 -50 63 C-5.78 63.33 38.44 63.66 84 64 C84 64.33 84 64.66 84 65 C66.48457749 65.0934426 48.96923278 65.16397875 31.45361805 65.20724869 C23.32080058 65.22787372 15.18813799 65.25599306 7.05541992 65.30175781 C-0.03309063 65.34162754 -7.12148902 65.36743325 -14.21010858 65.37635398 C-17.96351367 65.38156856 -21.71659788 65.39382304 -25.46990013 65.42292023 C-29.66000984 65.45514023 -33.84956174 65.45595933 -38.03979492 65.45410156 C-39.28416824 65.46848267 -40.52854156 65.48286377 -41.81062317 65.49768066 C-42.95340729 65.49218201 -44.09619141 65.48668335 -45.27360535 65.48101807 C-46.2645328 65.48470524 -47.25546026 65.48839241 -48.27641582 65.49219131 C-51.77875519 64.8592676 -53.47166643 63.45625306 -56 61 C-56.63378906 58.60676575 -56.63378906 58.60676575 -56 56 C-54.34740903 53.88002023 -52.77618616 52.14275591 -50.859375 50.29174805 C-50.31317505 49.74481796 -49.7669751 49.19788788 -49.20422363 48.63438416 C-47.39774858 46.83138967 -45.57421766 45.04674493 -43.75 43.26171875 C-42.49337964 42.01442477 -41.23785944 40.76602151 -39.98339844 39.51655579 C-36.68002483 36.23226535 -33.36191199 32.96326605 -30.04052734 29.69720459 C-26.65342162 26.36126208 -23.2804405 23.01110572 -19.90625 19.66210938 C-13.28459673 13.09406714 -6.6472888 6.54208904 0 0 Z " fill="#08398C" transform="translate(170,123)"/>
<path d="M0 0 C-4.2492875 5.0743445 -8.69105485 9.83009549 -13.38232422 14.49584961 C-14.09521103 15.20888245 -14.80809784 15.92191528 -15.54258728 16.65655518 C-17.87758914 18.99086557 -20.21610295 21.3216231 -22.5546875 23.65234375 C-24.18300884 25.27879819 -25.81110818 26.90547491 -27.43899536 28.53236389 C-31.70779016 32.79735497 -35.9795804 37.05933336 -40.25201416 41.32067871 C-44.61774903 45.67615322 -48.98062671 50.03448773 -53.34375 54.39257812 C-61.89304882 62.93117747 -70.44551677 71.46659493 -79 80 C-79.33 79.01 -79.66 78.02 -80 77 C-79.360625 76.7525 -78.72125 76.505 -78.0625 76.25 C-75.81258459 75.18437567 -75.81258459 75.18437567 -75.25 72.875 C-75.1675 72.25625 -75.085 71.6375 -75 71 C-74.01 71 -73.02 71 -72 71 C-72.33 70.01 -72.66 69.02 -73 68 C-72.34 68 -71.68 68 -71 68 C-71 67.34 -71 66.68 -71 66 C-69.68 66 -68.36 66 -67 66 C-67 64.35 -67 62.7 -67 61 C-65.02 60.505 -65.02 60.505 -63 60 C-63 58.35 -63 56.7 -63 55 C-60 54 -60 54 -57 55 C-57 54.01 -57 53.02 -57 52 C-56.01 52 -55.02 52 -54 52 C-53.67 51.01 -53.34 50.02 -53 49 C-52.34 49 -51.68 49 -51 49 C-51 48.34 -51 47.68 -51 47 C-50.01 47 -49.02 47 -48 47 C-47.67 45.68 -47.34 44.36 -47 43 C-46.01 43 -45.02 43 -44 43 C-43.814375 42.1028125 -43.814375 42.1028125 -43.625 41.1875 C-43 39 -43 39 -41 36 C-40.01 36 -39.02 36 -38 36 C-37.67 35.01 -37.34 34.02 -37 33 C-36.01 33 -35.02 33 -34 33 C-33.67 31.68 -33.34 30.36 -33 29 C-32.34 29 -31.68 29 -31 29 C-31 28.34 -31 27.68 -31 27 C-30.01 27 -29.02 27 -28 27 C-27.814375 26.1028125 -27.814375 26.1028125 -27.625 25.1875 C-27 23 -27 23 -25 20 C-24.01 20 -23.02 20 -22 20 C-22 19.34 -22 18.68 -22 18 C-21.01 17.67 -20.02 17.34 -19 17 C-18.525625 16.175 -18.05125 15.35 -17.5625 14.5 C-16 12 -16 12 -13.8125 11.1875 C-13.214375 11.125625 -12.61625 11.06375 -12 11 C-11.855625 10.38125 -11.71125 9.7625 -11.5625 9.125 C-11 7 -11 7 -10 5 C-9.01 5 -8.02 5 -7 5 C-7 3.68 -7 2.36 -7 1 C-3.375 -1.125 -3.375 -1.125 0 0 Z " fill="#1049A4" transform="translate(358,331)"/>
<path d="M0 0 C2.09381792 1.6912314 2.92545345 2.60303494 3.42970753 5.28821945 C3.45482253 6.1907407 3.47993753 7.09326195 3.5058136 8.02313232 C3.54047572 9.05818531 3.57513784 10.0932383 3.61085033 11.15965652 C3.63268037 12.29387417 3.6545104 13.42809181 3.67700195 14.59667969 C3.71001813 15.79322552 3.74303431 16.98977135 3.77705097 18.22257614 C4.13366041 32.53923645 4.16472511 46.86074392 4.16725707 61.18104649 C4.16797937 63.48702028 4.17013469 65.7929885 4.17275429 68.09896088 C4.18190794 76.173074 4.18609981 84.24717092 4.18530273 92.32128906 C4.18469686 99.8101776 4.19537302 107.29899532 4.2110464 114.78786588 C4.22412489 121.2708473 4.22948687 127.75380544 4.22884732 134.23679996 C4.22859347 138.08700264 4.23138539 141.9371413 4.24202538 145.78733063 C4.25171769 149.38931493 4.25177793 152.99117376 4.24450874 156.59316254 C4.24297065 158.53460806 4.25129162 160.47605364 4.25994873 162.41748047 C4.21988278 173.54956256 4.21988278 173.54956256 2 179 C1.34 179.33 0.68 179.66 0 180 C0.02963837 178.91924194 0.05927673 177.83848389 0.08981323 176.72497559 C1.00808451 142.44693371 1.15781384 108.17971415 1.12856841 73.89239502 C1.12417708 68.12779415 1.12736942 62.36321473 1.1321975 56.59861517 C1.13673667 50.94749611 1.13737839 45.29638635 1.13475883 39.64526606 C1.13321399 36.30957868 1.13335826 32.97391769 1.13629532 29.63822937 C1.13883216 25.96387584 1.13497163 22.28958334 1.12939453 18.61523438 C1.13141876 17.53604736 1.13344299 16.45686035 1.13552856 15.3449707 C1.1208245 10.12061576 0.91273662 5.14720258 0 0 Z " fill="#204297" transform="translate(220,283)"/>
<path d="M0 0 C0.83614838 -0.0049649 1.67229675 -0.00992981 2.53378296 -0.01504517 C5.30353619 -0.02966412 8.07323208 -0.03646943 10.84301758 -0.04199219 C12.77012636 -0.04774521 14.69723512 -0.05350292 16.62434387 -0.05926514 C20.66867337 -0.06977529 24.71298299 -0.07561742 28.75732422 -0.07910156 C33.92775194 -0.08457699 39.09791508 -0.10858462 44.26826 -0.13707352 C48.25151828 -0.15574473 52.23471352 -0.16090795 56.21801186 -0.16243744 C58.12330886 -0.16545592 60.02860496 -0.17345717 61.93385887 -0.18662262 C64.60714886 -0.20377196 67.27980157 -0.20178096 69.953125 -0.1953125 C70.73316391 -0.20452728 71.51320282 -0.21374207 72.31687927 -0.22323608 C77.75549089 -0.18223333 81.87713794 0.78004039 86.80004883 3.16113281 C88.02330303 5.26911545 88.02330303 5.26911545 88.80004883 7.16113281 C87.66120743 6.51082596 86.52236603 5.8605191 85.34901428 5.19050598 C80.7892319 2.92272555 77.04523505 2.60790951 72.01660156 2.69116211 C70.75887436 2.68787651 70.75887436 2.68787651 69.47573853 2.68452454 C66.72796014 2.68222931 63.98127654 2.70838195 61.23364258 2.73535156 C59.31128783 2.74028117 57.38892827 2.74357633 55.46656799 2.74531555 C51.44776953 2.75293578 47.42932973 2.77343549 43.41064453 2.80444336 C38.27061235 2.84404315 33.13081278 2.86206028 27.99064541 2.87175274 C23.0716133 2.881747 18.15263708 2.90160194 13.23364258 2.92285156 C12.30107573 2.92624731 11.36850887 2.92964306 10.40768242 2.93314171 C7.75642214 2.94477981 5.1053038 2.9633099 2.45410156 2.98413086 C1.6783226 2.98681976 0.90254364 2.98950867 0.10325623 2.99227905 C-4.42501 3.03665851 -8.73066319 3.42266979 -13.19995117 4.16113281 C-9.84602802 -0.86975191 -5.54105163 0.00783906 0 0 Z " fill="#143278" transform="translate(131.199951171875,275.8388671875)"/>
<path d="M0 0 C0.625 1.75 0.625 1.75 1 4 C0.52521682 4.84388716 0.52521682 4.84388716 0.04084206 5.70482254 C-1.39293384 8.86646468 -1.26321916 11.50515535 -1.2784729 14.97283936 C-1.2842653 15.67454451 -1.2900577 16.37624966 -1.29602563 17.09921861 C-1.31302792 19.4499814 -1.31590229 21.80054788 -1.31884766 24.15136719 C-1.32814568 25.83666973 -1.33831417 27.52196767 -1.34928894 29.20726013 C-1.37661717 33.78331382 -1.39174672 38.35933667 -1.40471697 42.93545055 C-1.42033515 47.71744007 -1.44712955 52.49936651 -1.4727478 57.28131104 C-1.51955885 66.33701696 -1.55629171 75.39273473 -1.58942068 84.44849992 C-1.62762562 94.75798808 -1.67704005 105.06741293 -1.72740483 115.37684774 C-1.83075928 136.58451843 -1.92000827 157.79222918 -2 179 C-2.33 179 -2.66 179 -3 179 C-3.07005476 156.39959366 -3.12297087 133.7992052 -3.15543652 111.19871235 C-3.17091098 100.70511052 -3.19201159 90.21157613 -3.22631836 79.71801758 C-3.25620295 70.57273682 -3.27557079 61.4275049 -3.28226548 52.28217667 C-3.28617933 47.43896992 -3.29538949 42.59590287 -3.31719017 37.75274086 C-3.33754043 33.19490501 -3.34383675 28.63726654 -3.33932304 24.07938957 C-3.3401489 22.40603183 -3.34612327 20.73266754 -3.35761642 19.05934906 C-3.37253794 16.77498505 -3.36895523 14.49136666 -3.36076355 12.20698547 C-3.36352893 10.9284586 -3.36629431 9.64993174 -3.36914349 8.33266163 C-2.97527521 4.77678235 -2.07261631 2.87519171 0 0 Z " fill="#1155BE" transform="translate(117,280)"/>
<path d="M0 0 C-5.63701068 2.94661922 -5.63701068 2.94661922 -8.125 3.3125 C-10.37956543 3.92992777 -10.37956543 3.92992777 -12 7 C-14 10 -14 10 -16.25 10.875 C-16.8275 10.91625 -17.405 10.9575 -18 11 C-18.0928125 11.928125 -18.0928125 11.928125 -18.1875 12.875 C-18.455625 13.57625 -18.72375 14.2775 -19 15 C-20.66666667 15.66666667 -22.33333333 16.33333333 -24 17 C-24.75243555 18.92638012 -24.75243555 18.92638012 -25 21 C-28.16111767 25.74167651 -32.61573254 27.72613729 -38 29 C-32.97941997 22.97530396 -27.62413141 17.3390132 -22.125 11.75 C-21.26519531 10.8528125 -20.40539062 9.955625 -19.51953125 9.03125 C-8.11874619 -2.52523622 -8.11874619 -2.52523622 0 0 Z " fill="#145BC9" transform="translate(258,45)"/>
<path d="M0 0 C0.66 0.33 1.32 0.66 2 1 C-2.00556721 14.52604581 -15.21588474 24.43249492 -25 34 C-25 30.36693069 -23.92067933 29.02876356 -22 26 C-21.31903578 24.67391178 -20.64669414 23.34313399 -20 22 C-19.01 22 -18.02 22 -17 22 C-16.67 21.01 -16.34 20.02 -16 19 C-14.02043058 17.30911778 -12.02054804 15.64169528 -10 14 C-9.67 13.34 -9.34 12.68 -9 12 C-8.01 12 -7.02 12 -6 12 C-6.33 10.68 -6.66 9.36 -7 8 C-6.34 8 -5.68 8 -5 8 C-5 7.34 -5 6.68 -5 6 C-4.01 6 -3.02 6 -2 6 C-2 5.01 -2 4.02 -2 3 C-1.34 3 -0.68 3 0 3 C0 2.01 0 1.02 0 0 Z " fill="#124CAC" transform="translate(384,297)"/>
<path d="M0 0 C0 3.72820818 -0.84132013 4.97784819 -3 8 C-4.93421396 9.75791842 -6.96159811 11.36041587 -9 13 C-9.33 13.66 -9.66 14.32 -10 15 C-10.66 15 -11.32 15 -12 15 C-12.185625 15.680625 -12.37125 16.36125 -12.5625 17.0625 C-14.55619324 21.13656879 -17.49774708 24.13376943 -21 27 C-21.66 27 -22.32 27 -23 27 C-23.66 28.32 -24.32 29.64 -25 31 C-28 31 -28 31 -30 30 C-20.1 20.1 -10.2 10.2 0 0 Z " fill="#1557C4" transform="translate(201,92)"/>
<path d="M0 0 C0.99 0 1.98 0 3 0 C2.55970115 4.37575353 -0.35542093 6.73752108 -3.34765625 9.640625 C-3.87894638 10.16767029 -4.41023651 10.69471558 -4.95762634 11.23773193 C-6.65232825 12.91567187 -8.35717217 14.58286728 -10.0625 16.25 C-11.21487745 17.38732745 -12.36657852 18.52534066 -13.51757812 19.6640625 C-16.33727184 22.45071992 -19.16610588 25.22778792 -22 28 C-22.33 27.01 -22.66 26.02 -23 25 C-22.360625 24.7525 -21.72125 24.505 -21.0625 24.25 C-18.81258459 23.18437567 -18.81258459 23.18437567 -18.25 20.875 C-18.1675 20.25625 -18.085 19.6375 -18 19 C-17.01 19 -16.02 19 -15 19 C-15.33 18.01 -15.66 17.02 -16 16 C-15.34 16 -14.68 16 -14 16 C-14 15.34 -14 14.68 -14 14 C-12.68 14 -11.36 14 -10 14 C-10 12.35 -10 10.7 -10 9 C-8.68 8.67 -7.36 8.34 -6 8 C-6 6.35 -6 4.7 -6 3 C-3 2 -3 2 0 3 C0 2.01 0 1.02 0 0 Z " fill="#0F55C1" transform="translate(301,383)"/>
<path d="M0 0 C0.33 0.99 0.66 1.98 1 3 C-1.19674996 6.63372173 -4.11457719 9.47679561 -7.75 11.625 C-10.22539898 12.82054774 -10.22539898 12.82054774 -10.9375 15.5 C-12.42657096 19.00369638 -14.62834872 19.45465983 -18 21 C-18.66 21.99 -19.32 22.98 -20 24 C-20.66 24 -21.32 24 -22 24 C-22.33 26.31 -22.66 28.62 -23 31 C-22.01 31 -21.02 31 -20 31 C-20 31.66 -20 32.32 -20 33 C-19.01 33.33 -18.02 33.66 -17 34 C-22.42857143 34.36190476 -22.42857143 34.36190476 -24.875 32.8125 C-26.46818882 30.24569579 -26.46111371 29.00279151 -26 26 C-24.1671212 23.73121253 -22.40614538 21.8228619 -20.3125 19.82421875 C-19.73540283 19.25419632 -19.15830566 18.68417389 -18.5637207 18.09687805 C-16.72055988 16.28167175 -14.86077312 14.48463026 -13 12.6875 C-11.74625948 11.45884077 -10.49364087 10.22903561 -9.2421875 8.99804688 C-6.17431092 5.98525376 -3.09140799 2.98863512 0 0 Z " fill="#1852AC" transform="translate(140,153)"/>
<path d="M0 0 C0.33 0 0.66 0 1 0 C1.28943404 3.94661789 1.57404355 7.89355349 1.85449219 11.84082031 C1.99689249 13.83155745 2.14293693 15.82203284 2.2890625 17.8125 C3.77059895 38.76565831 3.77059895 38.76565831 1 46 C0.01 46.495 0.01 46.495 -1 47 C-0.67 31.49 -0.34 15.98 0 0 Z " fill="#1B4EAF" transform="translate(221,416)"/>
<path d="M0 0 C1 2 1 2 0.1875 4.5 C-1 7 -1 7 -3 9 C-3.99 9 -4.98 9 -6 9 C-6.33 10.32 -6.66 11.64 -7 13 C-7.66 13 -8.32 13 -9 13 C-9.309375 13.9590625 -9.309375 13.9590625 -9.625 14.9375 C-11 17 -11 17 -14.125 17.75 C-15.548125 17.87375 -15.548125 17.87375 -17 18 C-11.72898586 11.58930713 -5.90871848 5.81409488 0 0 Z " fill="#175BC9" transform="translate(219,74)"/>
<path d="M0 0 C-5.63701068 2.94661922 -5.63701068 2.94661922 -8.125 3.3125 C-10.38911647 3.92664534 -10.38911647 3.92664534 -11.9375 7.0625 C-12.618125 8.031875 -13.29875 9.00125 -14 10 C-16.75 10.375 -16.75 10.375 -19 10 C-14.63975836 3.91276069 -8.06618376 -2.77389125 0 0 Z " fill="#1756BC" transform="translate(258,45)"/>
<path d="M0 0 C0.33 0 0.66 0 1 0 C1.33 4.95 1.66 9.9 2 15 C4.64 15 7.28 15 10 15 C8.875 17 8.875 17 7 19 C3.875 19.3125 3.875 19.3125 1 19 C0 18 0 18 -0.11352539 16.23413086 C-0.10828857 15.48526611 -0.10305176 14.73640137 -0.09765625 13.96484375 C-0.09443359 13.15595703 -0.09121094 12.34707031 -0.08789062 11.51367188 C-0.07951172 10.66353516 -0.07113281 9.81339844 -0.0625 8.9375 C-0.05798828 8.08349609 -0.05347656 7.22949219 -0.04882812 6.34960938 C-0.03700373 4.23304337 -0.01906769 2.11651315 0 0 Z " fill="#1B5EBC" transform="translate(267,397)"/>
<path d="M0 0 C0 4.12322935 -1.487375 6.48313796 -4.39453125 9.3984375 C-7.18588189 11.84351933 -9.38614735 13.28191265 -13 14 C-8.88380164 9.08064098 -4.59589638 4.47352044 0 0 Z " fill="#1750AF" transform="translate(201,92)"/>
<path d="M0 0 C3.86660806 0.17575491 5.56491103 0.57636074 8.375 3.3125 C11.16584417 8.00619247 10.30584107 13.74972838 10 19 C9.67 19 9.34 19 9 19 C8.67 15.04 8.34 11.08 8 7 C7.34 7 6.68 7 6 7 C4.62517293 5.36739286 3.29352333 3.69774938 2 2 C1.34 1.34 0.68 0.68 0 0 Z " fill="#1A57BB" transform="translate(258,189)"/>
<path d="M0 0 C0.33 0.99 0.66 1.98 1 3 C0.071875 3.8971875 0.071875 3.8971875 -0.875 4.8125 C-3.13676954 7.00811144 -3.13676954 7.00811144 -5 10 C-5.66 10 -6.32 10 -7 10 C-7.33 10.99 -7.66 11.98 -8 13 C-9.32 12.67 -10.64 12.34 -12 12 C-8.04 8.04 -4.08 4.08 0 0 Z " fill="#1551AD" transform="translate(170,123)"/>
<path d="M0 0 C0.33 0 0.66 0 1 0 C1.05830787 3.39576062 1.09369946 6.7913915 1.125 10.1875 C1.14175781 11.14720703 1.15851563 12.10691406 1.17578125 13.09570312 C1.18222656 14.02705078 1.18867188 14.95839844 1.1953125 15.91796875 C1.20578613 16.77156982 1.21625977 17.6251709 1.22705078 18.50463867 C0.96858573 21.34525296 0.26446882 23.44914639 -1 26 C-1.66 26.33 -2.32 26.66 -3 27 C-3.33 25.68 -3.66 24.36 -4 23 C-3.34 23 -2.68 23 -2 23 C-1.0699111 20.2097333 -0.81301231 18.23470458 -0.68359375 15.33203125 C-0.64169922 14.43935547 -0.59980469 13.54667969 -0.55664062 12.62695312 C-0.51732422 11.69818359 -0.47800781 10.76941406 -0.4375 9.8125 C-0.39431641 8.87212891 -0.35113281 7.93175781 -0.30664062 6.96289062 C-0.20061335 4.64207146 -0.09854971 2.32114675 0 0 Z " fill="#1060D7" transform="translate(220,440)"/>
<path d="M0 0 C-0.93274109 1.12894876 -1.87140122 2.25300876 -2.8125 3.375 C-3.33457031 4.00148438 -3.85664063 4.62796875 -4.39453125 5.2734375 C-6 7 -6 7 -9 9 C-9.33 7.68 -9.66 6.36 -10 5 C-9.01 5 -8.02 5 -7 5 C-7 3.68 -7 2.36 -7 1 C-3.375 -1.125 -3.375 -1.125 0 0 Z " fill="#1150B3" transform="translate(358,331)"/>
<path d="M0 0 C0.66 0.33 1.32 0.66 2 1 C1.67 1.598125 1.34 2.19625 1 2.8125 C-0.20787988 5.05386471 -0.20787988 5.05386471 0 8 C-0.99 8.33 -1.98 8.66 -3 9 C-3 9.66 -3 10.32 -3 11 C-3.99 10.67 -4.98 10.34 -6 10 C-6 9.34 -6 8.68 -6 8 C-5 7 -4 6 -3 5 C-1.96642853 3.35394174 -0.95939668 1.69036558 0 0 Z " fill="#0A68EF" transform="translate(202,92)"/>
<path d="M0 0 C0.33 0.66 0.66 1.32 1 2 C0.34 2 -0.32 2 -1 2 C-1.4021875 3.1446875 -1.4021875 3.1446875 -1.8125 4.3125 C-2.94424112 6.87380884 -3.91223401 8.19692938 -6 10 C-6.99 9.67 -7.98 9.34 -9 9 C-8.01 8.34 -7.02 7.68 -6 7 C-5.5359375 5.7625 -5.5359375 5.7625 -5.0625 4.5 C-4 2 -4 2 -1.875 0.6875 C-1.25625 0.460625 -0.6375 0.23375 0 0 Z " fill="#1460D5" transform="translate(190,105)"/>
<path d="M0 0 C0.33 0.99 0.66 1.98 1 3 C0.01 3.66 -0.98 4.32 -2 5 C-2 5.99 -2 6.98 -2 8 C-2.99 8.66 -3.98 9.32 -5 10 C-5 9.34 -5 8.68 -5 8 C-5.66 7.67 -6.32 7.34 -7 7 C-4.69 4.69 -2.38 2.38 0 0 Z " fill="#1254B5" transform="translate(184,109)"/>
<path d="M0 0 C1 2 1 2 0.25 4.5 C-1 7 -1 7 -4 9 C-4.99 8.34 -5.98 7.68 -7 7 C-4.69 4.69 -2.38 2.38 0 0 Z " fill="#1756BD" transform="translate(219,74)"/>
<path d="M0 0 C0.625 1.75 0.625 1.75 1 4 C0.35191436 5.34246312 -0.31822584 6.67432801 -1 8 C-1.38749213 10.32495277 -1.72982839 12.65851268 -2 15 C-2.33 15 -2.66 15 -3 15 C-3.55353075 4.44191344 -3.55353075 4.44191344 0 0 Z " fill="#144DA6" transform="translate(117,280)"/>
<path d="M0 0 C3.51121797 0.2926015 4.80482666 0.8099628 7.375 3.3125 C9 6 9 6 8.75 8.3125 C8.5025 8.869375 8.255 9.42625 8 10 C7.4225 8.865625 6.845 7.73125 6.25 6.5625 C4.64507365 3.62689703 4.64507365 3.62689703 1.75 2.0625 C0.88375 2.0315625 0.88375 2.0315625 0 2 C0 1.34 0 0.68 0 0 Z " fill="#1865DB" transform="translate(212,279)"/>
<path d="M0 0 C0.99 0 1.98 0 3 0 C1.4169423 4.2742558 -1.50568404 6.26531794 -5 9 C-4.6875 7.0625 -4.6875 7.0625 -4 5 C-3.01 4.67 -2.02 4.34 -1 4 C-0.26676204 1.98491642 -0.26676204 1.98491642 0 0 Z " fill="#1950AC" transform="translate(283,402)"/>
<path d="M0 0 C-4.22949995 2.41685712 -7.12335991 3.34833144 -12 3 C-4.82142857 -1.78571429 -4.82142857 -1.78571429 0 0 Z " fill="#14489B" transform="translate(258,45)"/>
<path d="M0 0 C0 3 0 3 -1 5 C-1.66 5 -2.32 5 -3 5 C-3 5.66 -3 6.32 -3 7 C-3.99 6.67 -4.98 6.34 -6 6 C-4.95125002 3.37812506 -4.35068687 2.20628639 -1.875 0.75 C-1.25625 0.5025 -0.6375 0.255 0 0 Z " fill="#0F68EA" transform="translate(224,72)"/>
<path d="M0 0 C3.36720387 1.39332574 4.9859524 2.9789286 7 6 C4.625 5.8125 4.625 5.8125 2 5 C0.6875 2.4375 0.6875 2.4375 0 0 Z " fill="#1F58B6" transform="translate(116,463)"/>
<path d="M0 0 C0.99 0 1.98 0 3 0 C2.6875 1.875 2.6875 1.875 2 4 C1.01 4.66 0.02 5.32 -1 6 C-1.33 5.01 -1.66 4.02 -2 3 C-1.34 2.01 -0.68 1.02 0 0 Z " fill="#114DB2" transform="translate(333,351)"/>
<path d="M0 0 C0.33 1.32 0.66 2.64 1 4 C-1.375 5.5625 -1.375 5.5625 -4 7 C-4.66 6.67 -5.32 6.34 -6 6 C-4.02 4.02 -2.04 2.04 0 0 Z " fill="#1850A7" transform="translate(230,63)"/>
</svg>
